<svg height="50" viewBox="0 0 30.85 27" width="50" xmlns="http://www.w3.org/2000/svg">
	<g>
		<path d="m21.536 19.216a3.063 3.063 0 1 1 -6.126 0 3.063 3.063 0 0 1 6.126 0z" />
		<path d="m15.411 18.692h1.38v1.269h-1.38zm4.829 0h1.293v1.269h-1.293z" opacity=".4" />
		<path d="m24.593 3.277a3.063 3.063 0 1 1 -6.126 0 3.063 3.063 0 0 1 6.126 0z" />
		<path d="m18.47 2.752h1.381v1.27h-1.381zm4.83 0h1.29v1.27h-1.29z" opacity=".4" />
		<path d="m27.663 8.565a3.063 3.063 0 1 1 -6.125 0 3.063 3.063 0 1 1 6.125 0z" />
		<path d="m21.54 8.042h1.38v1.269h-1.38zm4.83 0h1.293v1.269h-1.293z" opacity=".4" />
		<path d="m6.128 3.271a3.063 3.063 0 1 1 -6.127 0 3.063 3.063 0 0 1 6.127 0z" />
		<path d="m.002 2.747h1.38v1.27h-1.38zm4.83 0h1.293v1.27h-1.293z" opacity=".4" />
		<path d="m15.403 8.562a3.064 3.064 0 1 1 -6.128-.002 3.064 3.064 0 0 1 6.128.002z" />
		<path d="m9.278 8.038h1.38v1.27h-1.38zm4.83 0h1.292v1.27h-1.292z" opacity=".4" />
		<path d="m12.344 13.728a3.065 3.065 0 1 1 -6.13-.002 3.065 3.065 0 0 1 6.13.002z" />
		<path d="m6.219 13.204h1.379v1.27h-1.379zm4.829 0h1.293v1.27h-1.293z" opacity=".4" />
		<path d="m18.475 3.293a3.064 3.064 0 1 1 -6.128-.004 3.064 3.064 0 0 1 6.128.004z" />
		<path d="m12.35 2.769h1.49v1.269h-1.49zm4.635 0h1.489v1.269h-1.489z" opacity=".4" />
		<path d="m18.468 13.724a3.063 3.063 0 1 1 -6.128 0 3.064 3.064 0 1 1 6.128 0z" />
		<path d="m24.601 13.839a3.063 3.063 0 0 1 -3.062 3.063 3.064 3.064 0 1 1 3.062-3.063z" />
		<path
			d="m21.53 8.562a3.063 3.063 0 1 1 -3.062-3.064 3.063 3.063 0 0 1 3.062 3.064zm-12.335-.005a3.061 3.061 0 0 1 -3.062 3.063 3.064 3.064 0 1 1 3.062-3.063zm6.213 10.656a3.064 3.064 0 1 1 -6.128 0 3.064 3.064 0 0 1 6.128 0zm15.319-15.921a3.062 3.062 0 0 1 -3.062 3.063 3.064 3.064 0 1 1 3.062-3.063z"
		/>
		<path
			d="m12.344 3.293a3.062 3.062 0 0 1 -3.062 3.062 3.063 3.063 0 1 1 3.062-3.062zm6.128 21.264a3.062 3.062 0 0 1 -3.063 3.062 3.064 3.064 0 1 1 3.063-3.062z"
		/>
		<path d="m21.536 19.009a3.064 3.064 0 1 1 -6.127-.001 3.064 3.064 0 0 1 6.127.001z" />
		<path d="m15.411 18.485h1.38v1.269h-1.38zm4.829 0h1.293v1.269h-1.293z" opacity=".4" />
		<path d="m24.593 3.07a3.063 3.063 0 1 1 -6.124 0 3.061 3.061 0 1 1 6.124 0z" />
		<path d="m18.47 2.546h1.381v1.269h-1.381zm4.83 0h1.29v1.269h-1.29z" opacity=".4" />
		<path d="m27.663 8.358a3.062 3.062 0 1 1 -6.125 0 3.062 3.062 0 1 1 6.125 0z" />
		<path d="m21.54 7.835h1.38v1.269h-1.38zm4.83 0h1.293v1.269h-1.293z" opacity=".4" />
		<path d="m6.128 3.064a3.063 3.063 0 1 1 -6.127 0 3.063 3.063 0 0 1 6.127 0z" />
		<path d="m.002 2.54h1.38v1.27h-1.38zm4.83 0h1.293v1.27h-1.293z" opacity=".4" />
		<path d="m15.403 8.354a3.065 3.065 0 1 1 -6.13-.002 3.065 3.065 0 0 1 6.13.002z" />
		<path d="m9.278 7.831h1.38v1.269h-1.38zm4.83 0h1.292v1.269h-1.292z" opacity=".4" />
		<path d="m12.344 13.521a3.065 3.065 0 1 1 -6.13-.002 3.065 3.065 0 0 1 6.13.002z" />
		<path d="m6.219 12.996h1.379v1.27h-1.379zm4.829 0h1.293v1.27h-1.293z" opacity=".4" />
		<path d="m18.475 3.085a3.065 3.065 0 1 1 -6.13-.002 3.065 3.065 0 0 1 6.13.002z" />
		<path d="m12.35 2.562h1.49v1.269h-1.49zm4.635 0h1.489v1.269h-1.489z" opacity=".4" />
		<path d="m18.468 13.517a3.063 3.063 0 1 1 -6.128 0 3.064 3.064 0 1 1 6.128 0z" />
		<path d="m24.601 13.632a3.063 3.063 0 0 1 -3.062 3.062 3.063 3.063 0 1 1 3.062-3.062z" />
		<path
			d="m21.53 8.354a3.063 3.063 0 1 1 -6.126.002 3.063 3.063 0 0 1 6.126-.002zm-12.335-.004a3.062 3.062 0 1 1 -6.125 0 3.063 3.063 0 1 1 6.125 0zm6.213 10.656a3.062 3.062 0 0 1 -3.062 3.063 3.064 3.064 0 1 1 3.062-3.063zm15.319-15.921a3.063 3.063 0 1 1 -6.128 0 3.063 3.063 0 1 1 6.128 0z"
		/>
		<path
			d="m12.344 3.085a3.063 3.063 0 1 1 -6.128 0 3.064 3.064 0 1 1 6.128 0zm6.128 21.264a3.063 3.063 0 1 1 -6.127 0 3.064 3.064 0 1 1 6.127 0z"
		/>
	</g>
</svg>
