<svg
	class="icon tv-channel-10ball"
	xmlns="http://www.w3.org/2000/svg"
	width="50"
	height="50"
	preserveAspectRatio="xMidYMid meet"
	viewBox="0 0 24 22"
	xml:space="preserve"
>
	<g fill="black">
		<path d="M14.89 8.277a2.963 2.963 0 1 1-5.926 0 2.963 2.963 0 0 1 5.926 0z" />
		<path opacity=".4" d="M8.966 7.77H10.3v1.228H8.966zM13.637 7.77h1.25v1.228h-1.25z" />
		<path d="M23.787 3.165a2.965 2.965 0 0 1-5.928 0 2.965 2.965 0 1 1 5.928 0z" />
		<path opacity=".4" d="M17.862 2.657h1.441v1.228h-1.441zM22.346 2.657h1.441v1.228h-1.441z" />
		<path
			d="M8.97 8.385a2.963 2.963 0 0 1-5.927 0 2.964 2.964 0 1 1 5.927 0zM20.823 8.273a2.962 2.962 0 0 1-2.962 2.962 2.96 2.96 0 0 1-2.965-2.962 2.964 2.964 0 1 1 5.927 0z"
		/>
		<path
			d="M17.854 3.169a2.962 2.962 0 1 1-5.924 0 2.962 2.962 0 1 1 5.924 0zM5.924 3.164a2.96 2.96 0 0 1-2.961 2.963A2.96 2.96 0 0 1 0 3.164a2.962 2.962 0 1 1 5.924 0zM11.933 13.471a2.963 2.963 0 1 1-5.926 0 2.963 2.963 0 1 1 5.926 0zM17.862 13.471a2.963 2.963 0 1 1-5.927 0 2.962 2.962 0 0 1 2.965-2.964 2.962 2.962 0 0 1 2.962 2.964z"
		/>
		<path
			d="M11.926 3.165a2.962 2.962 0 1 1-5.927 0 2.964 2.964 0 1 1 5.927 0zM14.896 18.639a2.961 2.961 0 0 1-2.963 2.962 2.96 2.96 0 0 1-2.963-2.962 2.963 2.963 0 1 1 5.926 0z"
		/>
		<path d="M14.89 8.077a2.963 2.963 0 1 1-5.926 0 2.963 2.963 0 0 1 5.926 0z" />
		<path opacity=".4" d="M8.966 7.569H10.3v1.228H8.966zM13.637 7.569h1.25v1.228h-1.25z" />
		<path d="M23.787 2.964a2.965 2.965 0 0 1-5.928 0 2.964 2.964 0 1 1 5.928 0z" />
		<path opacity=".4" d="M17.862 2.457h1.441v1.228h-1.441zM22.346 2.457h1.441v1.228h-1.441z" />
		<path
			d="M8.97 8.185a2.963 2.963 0 0 1-5.927 0 2.964 2.964 0 1 1 5.927 0zM20.823 8.073a2.962 2.962 0 0 1-2.962 2.962 2.96 2.96 0 0 1-2.965-2.962 2.963 2.963 0 1 1 5.927 0z"
		/>
		<path
			d="M17.854 2.969a2.962 2.962 0 1 1-5.924 0 2.962 2.962 0 1 1 5.924 0zM5.924 2.964a2.961 2.961 0 1 1-5.924 0 2.962 2.962 0 1 1 5.924 0zM11.933 13.271a2.962 2.962 0 1 1-5.926 0 2.963 2.963 0 1 1 5.926 0zM17.862 13.271a2.963 2.963 0 1 1-5.927 0 2.962 2.962 0 0 1 2.965-2.964 2.962 2.962 0 0 1 2.962 2.964zM11.926 2.964a2.962 2.962 0 1 1-5.927 0 2.963 2.963 0 1 1 5.927 0z"
		/>
		<path d="M14.896 18.438a2.962 2.962 0 1 1-5.926 0 2.963 2.963 0 1 1 5.926 0z" />
	</g>
</svg>
