<svg class="icon tv-channel-bank" xmlns="http://www.w3.org/2000/svg" width="50" height="50" viewBox="-6 -1 30.85 27" xml:space="preserve">
	<g fill="black">
		<path
			d="M4.802 9.721h.028c.392-.49 1.106-.841 1.793-.841 1.961 0 2.521 1.681 2.521 3.642s-.7 3.642-2.661 3.642a2.571 2.571 0 0 1-1.793-.771h-.028l-.42.701H2.42V6.219h2.381v3.502zm.84 1.121c-.42 0-.687.168-.84.28v2.801c.154.112.42.281.84.281.771 0 .98-.701.98-1.682s-.209-1.68-.98-1.68zM12.221 11.052l1.891-2.031h2.873l-2.453 2.634 2.592 4.37h-2.801L12.88 13l-.658.715v2.311H9.84V6.219h2.381v4.833z"
		/>
	</g>
</svg>
