<svg class="icon tv-channel-straight" xmlns="http://www.w3.org/2000/svg" width="50" height="50" viewBox="0 -2 30.85 27" xml:space="preserve">
	<g fill="black">
		<path d="M20.66 18.435a2.938 2.938 0 0 1-2.938 2.938 2.938 2.938 0 1 1 0-5.877 2.938 2.938 0 0 1 2.938 2.939z" />
		<path opacity=".4" d="M14.784 17.933h1.324v1.218h-1.324zM19.418 17.933h1.24v1.218h-1.24z" />
		<path d="M23.594 3.145a2.938 2.938 0 0 1-2.938 2.938 2.935 2.935 0 0 1-2.939-2.938 2.939 2.939 0 1 1 5.877 0z" />
		<path opacity=".4" d="M17.719 2.641h1.324v1.218h-1.324zM22.354 2.641h1.237v1.218h-1.237z" />
		<path d="M26.538 8.218c0 1.624-1.313 2.939-2.938 2.939s-2.938-1.315-2.938-2.939a2.938 2.938 0 1 1 5.876 0z" />
		<path opacity=".4" d="M20.664 7.716h1.324v1.217h-1.324zM25.298 7.716h1.24v1.217h-1.24z" />
		<path d="M5.879 3.139A2.939 2.939 0 0 1 2.94 6.078C1.314 6.078 0 4.763 0 3.139S1.314.2 2.939.2a2.939 2.939 0 0 1 2.94 2.939z" />
		<path opacity=".4" d="M.003 2.636h1.324v1.217H.003zM4.636 2.636h1.241v1.217H4.636z" />
		<path d="M14.777 8.214a2.94 2.94 0 1 1-5.88-.002 2.94 2.94 0 0 1 5.88.002z" />
		<path opacity=".4" d="M8.901 7.711h1.324v1.218H8.901zM13.535 7.711h1.24v1.218h-1.24z" />
		<path d="M11.843 13.171a2.939 2.939 0 0 1-2.94 2.938 2.939 2.939 0 1 1 2.94-2.938z" />
		<path opacity=".4" d="M5.967 12.667h1.324v1.217H5.967zM10.599 12.667h1.24v1.217h-1.24z" />
		<path d="M17.724 3.159a2.94 2.94 0 1 1-5.88-.003 2.94 2.94 0 0 1 5.88.003z" />
		<path opacity=".4" d="M11.848 2.655h1.43v1.218h-1.43zM16.295 2.655h1.429v1.218h-1.429z" />
		<path d="M17.717 13.166a2.94 2.94 0 0 1-2.939 2.938 2.938 2.938 0 0 1-2.939-2.938 2.94 2.94 0 1 1 5.878 0z" />
		<path d="M23.601 13.276a2.938 2.938 0 0 1-2.938 2.939 2.938 2.938 0 1 1 0-5.878 2.94 2.94 0 0 1 2.938 2.939z" />
		<path
			d="M20.654 8.214a2.938 2.938 0 1 1-5.876 0 2.937 2.937 0 1 1 5.876 0zM8.822 8.208a2.937 2.937 0 1 1-5.876 0 2.939 2.939 0 1 1 5.876 0zM14.782 18.433a2.938 2.938 0 0 1-2.938 2.939 2.939 2.939 0 1 1 2.938-2.939zM29.479 3.158a2.938 2.938 0 0 1-2.938 2.939A2.936 2.936 0 0 1 23.6 3.158a2.938 2.938 0 1 1 5.879 0z"
		/>
		<path
			d="M11.843 3.159a2.938 2.938 0 0 1-2.938 2.938A2.938 2.938 0 1 1 8.902.219a2.94 2.94 0 0 1 2.941 2.94zM20.66 18.236a2.938 2.938 0 0 1-2.938 2.938 2.939 2.939 0 1 1 2.938-2.938z"
		/>
		<path opacity=".4" d="M14.784 17.733h1.324v1.218h-1.324zM19.418 17.733h1.24v1.218h-1.24z" />
		<path d="M23.594 2.945a2.938 2.938 0 1 1-5.877 0 2.937 2.937 0 0 1 2.939-2.94 2.94 2.94 0 0 1 2.938 2.94z" />
		<path opacity=".4" d="M17.719 2.441h1.324v1.218h-1.324zM22.354 2.441h1.237v1.218h-1.237z" />
		<path d="M26.538 8.019a2.936 2.936 0 0 1-2.938 2.939 2.936 2.936 0 0 1-2.938-2.939 2.937 2.937 0 1 1 5.876 0z" />
		<path opacity=".4" d="M20.664 7.517h1.324v1.217h-1.324zM25.298 7.517h1.24v1.217h-1.24z" />
		<path d="M5.879 2.94A2.938 2.938 0 0 1 2.94 5.878 2.937 2.937 0 0 1 0 2.94a2.94 2.94 0 0 1 5.879 0z" />
		<path opacity=".4" d="M.003 2.437h1.324v1.218H.003zM4.636 2.437h1.241v1.218H4.636z" />
		<path d="M14.777 8.015a2.94 2.94 0 1 1-5.88 0 2.94 2.94 0 0 1 5.88 0z" />
		<path opacity=".4" d="M8.901 7.512h1.324V8.73H8.901zM13.535 7.512h1.24V8.73h-1.24z" />
		<path d="M11.843 12.972a2.939 2.939 0 0 1-2.94 2.938 2.939 2.939 0 1 1 2.94-2.938z" />
		<path opacity=".4" d="M5.967 12.468h1.324v1.218H5.967zM10.599 12.468h1.24v1.218h-1.24z" />
		<path d="M17.724 2.96a2.94 2.94 0 1 1-5.88-.003 2.94 2.94 0 0 1 5.88.003z" />
		<path opacity=".4" d="M11.848 2.456h1.43v1.219h-1.43zM16.295 2.456h1.429v1.219h-1.429z" />
		<path d="M17.717 12.967a2.938 2.938 0 1 1-5.878 0 2.94 2.94 0 1 1 5.878 0z" />
		<path d="M23.601 13.078a2.939 2.939 0 0 1-2.938 2.939 2.939 2.939 0 1 1 0-5.879 2.94 2.94 0 0 1 2.938 2.94z" />
		<path
			d="M20.654 8.015a2.938 2.938 0 1 1-5.876 0 2.937 2.937 0 1 1 5.876 0zM8.822 8.01a2.938 2.938 0 1 1-5.877 0 2.939 2.939 0 1 1 5.877 0zM14.782 18.233a2.938 2.938 0 0 1-2.938 2.939 2.94 2.94 0 1 1 2.938-2.939zM29.479 2.96a2.938 2.938 0 0 1-2.938 2.938 2.939 2.939 0 1 1 2.938-2.938z"
		/>
		<path d="M11.843 2.96a2.938 2.938 0 0 1-2.938 2.938 2.939 2.939 0 1 1 2.938-2.938z" />
	</g>
</svg>
