<svg width="24" height="24" viewBox="0 0 24 24" fill="none" xmlns="http://www.w3.org/2000/svg">
<path d="M24 12C24 13.0068 22.3839 13.7879 22.1358 14.7164C21.879 15.6772 22.8804 17.1601 22.3937 18.0014C21.9 18.8547 20.1105 18.7255 19.418 19.418C18.7255 20.1105 18.8546 21.9 18.0013 22.3937C17.1601 22.8804 15.6772 21.879 14.7164 22.1358C13.7879 22.3839 13.0068 24 12 24C10.9932 24 10.2121 22.3839 9.28355 22.1358C8.32276 21.879 6.83985 22.8804 5.99865 22.3937C5.14533 21.9 5.27448 20.1105 4.58196 19.418C3.88945 18.7255 2.1 18.8546 1.6063 18.0013C1.1196 17.1601 2.12104 15.6772 1.86424 14.7164C1.61605 13.7879 0 13.0068 0 12C0 10.9932 1.61606 10.2121 1.86424 9.28355C2.12105 8.32276 1.11961 6.83985 1.60632 5.99864C2.10002 5.14533 3.88947 5.27448 4.58199 4.58196C5.2745 3.88945 5.14536 2.1 5.99867 1.6063C6.83987 1.1196 8.32277 2.12104 9.28356 1.86424C10.2121 1.61605 10.9932 0 12 0C13.0068 0 13.7879 1.61606 14.7164 1.86424C15.6772 2.12105 17.1601 1.11961 18.0014 1.60632C18.8547 2.10002 18.7255 3.88947 19.418 4.58199C20.1105 5.2745 21.9 5.14536 22.3937 5.99867C22.8804 6.83987 21.879 8.32277 22.1358 9.28356C22.3839 10.2121 24 10.9932 24 12Z" fill="#FAFAFA"/>
<path d="M5.55832 14.4819H4.61862C4.47312 14.4819 4.40039 14.4092 4.40039 14.2637V10.3352C4.40039 10.1897 4.47312 10.1169 4.61862 10.1169H7.32248C7.46798 10.1169 7.54074 10.1897 7.54074 10.3352V11.0566C7.54074 11.2021 7.46798 11.2749 7.32248 11.2749H5.77655V11.9054H6.83142C6.97692 11.9054 7.04968 11.9781 7.04968 12.1236V12.8511C7.04968 12.9966 6.97692 13.0694 6.83142 13.0694H5.77655V14.2637C5.77655 14.4092 5.70382 14.4819 5.55832 14.4819Z" fill="#030504"/>
<path d="M9.29882 14.4819H8.3652C8.2197 14.4819 8.14697 14.4092 8.14697 14.2637V10.3352C8.14697 10.1897 8.2197 10.1169 8.3652 10.1169H10.384C10.6871 10.1169 10.9255 10.1594 11.0994 10.2442C11.2731 10.3291 11.3965 10.4473 11.4692 10.5989C11.542 10.7505 11.5783 10.9273 11.5783 11.1294V11.4082C11.5783 11.578 11.5541 11.7215 11.5056 11.8387C11.4571 11.9559 11.3681 12.0428 11.2388 12.0994C11.461 12.1236 11.6389 12.2126 11.7723 12.3661C11.9057 12.5198 11.9724 12.7238 11.9724 12.9784V14.2637C11.9724 14.4092 11.8996 14.4819 11.7541 14.4819H10.8144C10.6689 14.4819 10.5962 14.4092 10.5962 14.2637V13.3361C10.5962 13.2432 10.5789 13.1765 10.5447 13.136C10.5103 13.0957 10.4507 13.0754 10.3658 13.0754H9.51709V14.2637C9.51709 14.4092 9.44432 14.4819 9.29882 14.4819ZM9.51709 11.2082V11.9842H9.97178C10.0768 11.9842 10.1476 11.9569 10.184 11.9023C10.2203 11.8478 10.2385 11.7801 10.2385 11.6992V11.4931C10.2385 11.4123 10.2203 11.3446 10.184 11.29C10.1476 11.2355 10.0768 11.2082 9.97178 11.2082L9.51709 11.2082Z" fill="#030504"/>
<path d="M15.6831 14.4819H12.8701C12.7246 14.4819 12.6519 14.4092 12.6519 14.2637V10.3352C12.6519 10.1897 12.7246 10.1169 12.8701 10.1169H15.6831C15.8286 10.1169 15.9013 10.1897 15.9013 10.3352V11.0445C15.9013 11.19 15.8286 11.2628 15.6831 11.2628H14.0098V11.7295H15.192C15.3375 11.7295 15.4102 11.8023 15.4102 11.9478V12.5965C15.4102 12.742 15.3375 12.8147 15.192 12.8147H14.0098V13.3361H15.6831C15.8286 13.3361 15.9013 13.4089 15.9013 13.5544V14.2637C15.9013 14.4092 15.8286 14.4819 15.6831 14.4819Z" fill="#030504"/>
<path d="M19.6479 14.4819H16.8349C16.6894 14.4819 16.6167 14.4092 16.6167 14.2637V10.3352C16.6167 10.1897 16.6894 10.1169 16.8349 10.1169H19.6479C19.7934 10.1169 19.8662 10.1897 19.8662 10.3352V11.0445C19.8662 11.19 19.7934 11.2628 19.6479 11.2628H17.9747V11.7295H19.1569C19.3024 11.7295 19.3751 11.8023 19.3751 11.9478V12.5965C19.3751 12.742 19.3024 12.8147 19.1569 12.8147H17.9747V13.3361H19.6479C19.7934 13.3361 19.8662 13.4089 19.8662 13.5544V14.2637C19.8662 14.4092 19.7934 14.4819 19.6479 14.4819Z" fill="#030504"/>
</svg>
