<svg width="24" height="24" viewBox="0 0 24 24" fill="none" xmlns="http://www.w3.org/2000/svg">
<path d="M15.566 13.5883L13.5882 15.5662L12.729 14.6662L14.62 12.6855L15.566 13.5883Z" fill="#FAFAFA"/>
<path d="M20.5435 20.5434C19.9244 21.1621 18.919 21.1502 18.315 20.5181L14.3169 16.3293L16.3295 14.3167L20.5178 18.3145C21.1509 18.9196 21.1622 19.9246 20.5435 20.5434Z" fill="#FAFAFA"/>
<path d="M11.2361 9.45489L9.41477 11.1937L3.00049 4.47442L4.47487 3L11.2361 9.45489Z" fill="#FAFAFA"/>
<path d="M7.67072 14.3168L3.48207 18.315C2.84929 18.9197 2.83804 19.9244 3.45676 20.5435C4.07477 21.1615 5.08054 21.151 5.68555 20.5178L9.68332 16.3294L7.67072 14.3168ZM19.5252 3.00024L8.43357 13.588L10.4121 15.5666L20.9995 4.47466L19.5252 3.00024Z" fill="#FAFAFA"/>
<path d="M11.9994 7.21865C10.8364 7.21865 9.89014 6.27241 9.89014 5.10933C9.89014 3.94624 10.8364 3 11.9994 3C13.1625 3 14.1087 3.94624 14.1087 5.10933C14.1087 6.27241 13.1625 7.21865 11.9994 7.21865Z" fill="#FAFAFA"/>
</svg>
