<svg data-linecolor="#F8E100" version="1.1" xmlns="http://www.w3.org/2000/svg" xmlns:xlink="http://www.w3.org/1999/xlink" x="0px" y="0px" width="17px" height="17px" viewBox="0 0 17 17" enable-background="new 0 0 17 17" xml:space="preserve">
    <path fill="#F8E100" d="M17,8.502C17,13.198,13.193,17,8.501,17C3.801,17.001,0,13.198,0,8.502C0,3.806,3.801,0,8.5,0 C13.192,0,17,3.806,17,8.502z"/>
    <path fill="#F2F2F2" d="M7.663,0.878c0.295,0.513-0.619,1.596-2.041,2.415C4.196,4.114,2.805,4.36,2.508,3.846 C2.212,3.331,3.125,2.25,4.549,1.428C5.972,0.611,7.366,0.364,7.663,0.878z"/>
    <path fill="#F2F2F2" d="M2.921,6.061c0.264,0.46,0.115,1.041-0.333,1.299C2.14,7.618,1.562,7.454,1.298,6.994 C1.033,6.536,1.182,5.955,1.63,5.697C2.079,5.439,2.657,5.601,2.921,6.061z"/>
</svg>
