<svg data-linecolor="#F8E100" version="1.1" xmlns="http://www.w3.org/2000/svg" xmlns:xlink="http://www.w3.org/1999/xlink" x="0px" y="0px" width="19.176px" height="19.18px" viewBox="0 0 19.176 19.18" enable-background="new 0 0 19.176 19.18" xml:space="preserve">
    <path fill="#F8E100" d="M19.176,9.591c0,5.297-4.3,9.587-9.588,9.587C4.288,19.179,0,14.888,0,9.591S4.288,0,9.587,0 C14.875,0,19.176,4.294,19.176,9.591z"/>
    <rect x="0.009" y="7.95" opacity="0.4" fill="#F2F2F2" enable-background="new    " width="4.662" height="3.972"/>
    <rect x="14.514" y="7.95" opacity="0.4" fill="#F2F2F2" enable-background="new    " width="4.662" height="3.972"/>
    <path fill="#FFFFFF" d="M10.93,10.154c-0.414,0.517-1.067,0.86-1.762,0.86c-1.581,0-2.563-1.043-2.563-2.882 c0-1.766,1.198-2.82,2.881-2.82c2.228,0,3.066,1.839,3.066,3.8c0,3.74-1.683,4.782-3.629,4.782c-0.796,0-1.414-0.123-2.06-0.346 l0.198-1.212c0.73,0.17,1.221,0.245,1.725,0.245c1.204,0,2.187-0.981,2.168-2.416L10.93,10.154z M9.57,6.635 c-0.695,0-1.275,0.504-1.275,1.497c0,0.662,0.245,1.495,1.299,1.495c0.501,0,0.91-0.282,1.229-0.662 C10.917,7.827,10.736,6.635,9.57,6.635z"/>
    <path fill="#F2F2F2" d="M8.643,0.99c0.334,0.579-0.697,1.8-2.302,2.724C4.734,4.64,3.164,4.918,2.829,4.338 c-0.334-0.581,0.695-1.8,2.302-2.727C6.736,0.689,8.308,0.41,8.643,0.99z"/>
</svg>
