<svg width="24" height="24" viewBox="0 0 24 24" fill="none" xmlns="http://www.w3.org/2000/svg">
<path d="M22.622 3.56014C22.2301 3.4712 21.8107 3.38828 21.3759 3.30794C21.2395 3.28201 21.1141 3.21566 21.0159 3.11751C20.9178 3.01935 20.8514 2.89393 20.8255 2.75756C20.7447 2.32147 20.6618 1.90256 20.5732 1.51158C20.4675 1.02651 19.7036 0.894609 19.2842 1.22458C18.3857 1.95498 17.2453 3.0523 16.4702 3.9073C16.3207 4.07185 16.2597 4.31933 16.3005 4.56509C16.4045 5.1812 16.4955 5.79989 16.5832 6.3971L11.5138 11.4635C11.3612 11.6167 11.2757 11.8242 11.2759 12.0404C11.2761 12.2566 11.3621 12.4639 11.515 12.6168C11.6679 12.7697 11.8752 12.8556 12.0914 12.8559C12.3077 12.8561 12.5151 12.7705 12.6684 12.618L17.736 7.55071C18.3333 7.63664 18.9516 7.72901 19.5682 7.83298C19.8136 7.8738 20.0615 7.81279 20.2261 7.6637C21.0807 6.89034 22.1777 5.74834 22.9086 4.84994C23.2386 4.42975 23.1071 3.66541 22.622 3.56014Z" fill="#FAFAFA"/>
<path d="M20.7454 8.2368C20.5046 8.45144 20.2009 8.58268 19.8796 8.61102C20.6769 10.424 20.8155 12.4585 20.2713 14.3629C19.7272 16.2672 18.5346 17.9214 16.8998 19.0396C15.265 20.1577 13.2908 20.6694 11.3186 20.4862C9.34648 20.3029 7.50037 19.4362 6.09962 18.036C4.69887 16.6358 3.83156 14.7901 3.6477 12.8181C3.46384 10.8462 3.97499 8.87198 5.09275 7.23698C6.2105 5.60198 7.86457 4.409 9.76887 3.86436C11.6732 3.31973 13.708 3.45769 15.5213 4.2544C15.5503 3.93293 15.6813 3.62915 15.8951 3.38737C16.2243 3.02432 16.6179 2.61916 17.0316 2.21486C15.499 1.44342 13.8066 1.04268 12.0907 1.04493C6.01585 1.04493 1.09082 5.96955 1.09082 12.0439C1.09082 18.1183 6.01585 23.0429 12.0907 23.0429C18.1656 23.0429 23.0906 18.1183 23.0906 12.0439C23.0928 10.3267 22.6913 8.63302 21.9184 7.09952C21.5141 7.5137 21.1085 7.90769 20.7454 8.2368Z" fill="#FAFAFA"/>
<path d="M15.3992 10.9792C15.6388 11.7223 15.6215 12.5244 15.3502 13.2565C15.0788 13.9886 14.5691 14.6082 13.9031 15.0157C13.237 15.4231 12.4533 15.5948 11.6778 15.5031C10.9024 15.4114 10.1804 15.0616 9.62775 14.51C9.07514 13.9584 8.72409 13.237 8.63103 12.4618C8.53798 11.6866 8.70833 10.9026 9.1147 10.2359C9.52107 9.56919 10.1398 9.05849 10.8715 8.7859C11.6032 8.51332 12.4054 8.49467 13.1489 8.73298L15.0322 6.84983C13.7759 6.13801 12.304 5.90578 10.8894 6.19617C9.4749 6.48657 8.2136 7.27989 7.33933 8.42911C6.46506 9.57833 6.0371 11.0055 6.13477 12.4461C6.23244 13.8868 6.84912 15.2431 7.87051 16.2638C8.8919 17.2846 10.2487 17.9004 11.6895 17.9973C13.1303 18.0941 14.5574 17.6654 15.7062 16.7905C16.855 15.9156 17.6477 14.654 17.9373 13.2394C18.2269 11.8248 17.9938 10.3532 17.2812 9.09732L15.3992 10.9792Z" fill="#FAFAFA"/>
</svg>
