<svg width="24" height="24" viewBox="0 0 24 24" fill="none" xmlns="http://www.w3.org/2000/svg">
<mask id="mask0_1292_1443" style="mask-type:luminance" maskUnits="userSpaceOnUse" x="0" y="0" width="24" height="24">
<path d="M24 0H0V24H24V0Z" fill="white"/>
</mask>
<g mask="url(#mask0_1292_1443)">
<path d="M19.5198 2.48996C17.1798 0.149958 12.8998 0.619957 9.96984 3.54996C8.36984 5.14996 7.44984 7.41996 7.42984 9.00996C7.40984 10.5899 7.68984 12.8999 6.07984 14.5099L1.83984 18.7499L3.25984 20.1699L7.49984 15.9299C9.10984 14.3199 11.4198 14.5999 12.9998 14.5799C14.5798 14.5599 16.8598 13.6399 18.4598 12.0399C21.3798 9.10996 21.8598 4.82996 19.5198 2.48996ZM10.3198 11.6799C8.78984 10.1499 9.26984 7.06996 11.3798 4.95996C13.4898 2.84996 16.5598 2.36996 18.0998 3.89996C19.6298 5.42996 19.1498 8.50996 17.0398 10.6199C14.9298 12.7299 11.8598 13.2099 10.3198 11.6799Z" fill="#FAFAFA"/>
<path d="M18 17C18.53 17 19.04 17.21 19.41 17.59C20.19 18.37 20.19 19.64 19.41 20.42C19.04 20.79 18.53 21 18 21C17.47 21 16.96 20.79 16.59 20.41C15.81 19.63 15.81 18.36 16.59 17.58C16.96 17.21 17.47 17 18 17ZM18 15C16.98 15 15.95 15.39 15.17 16.17C13.61 17.73 13.61 20.26 15.17 21.83C15.95 22.61 16.98 23 18 23C19.02 23 20.05 22.61 20.83 21.83C22.39 20.27 22.39 17.74 20.83 16.17C20.05 15.39 19.02 15 18 15Z" fill="#FAFAFA"/>
</g>
</svg>
