<svg width="16" height="18" viewBox="0 0 16 18" fill="none" xmlns="http://www.w3.org/2000/svg">
<path d="M2.83267 0.0537109C3.46558 0.0537109 4.07257 0.305133 4.5201 0.752667C4.96764 1.2002 5.21906 1.80719 5.21906 2.4401C5.21906 3.07301 4.96764 3.67999 4.5201 4.12753C4.07257 4.57506 3.46558 4.82648 2.83267 4.82648C2.19977 4.82648 1.59278 4.57506 1.14525 4.12753C0.697711 3.67999 0.446289 3.07301 0.446289 2.4401C0.446289 1.80719 0.697711 1.2002 1.14525 0.752667C1.59278 0.305133 2.19977 0.0537109 2.83267 0.0537109Z" fill="#FAFAFA"/>
<path d="M12.7034 5.86621C13.3363 5.86611 13.9433 6.11743 14.3909 6.56489C14.8385 7.01235 15.0901 7.6193 15.0902 8.25221C15.0903 8.88512 14.8389 9.49214 14.3915 9.93975C13.944 10.3874 13.3371 10.6389 12.7042 10.639C12.0712 10.6391 11.4642 10.3878 11.0166 9.9403C10.569 9.49284 10.3175 8.88589 10.3174 8.25299C10.3173 7.62008 10.5686 7.01305 11.0161 6.56544C11.4635 6.11784 12.0705 5.86631 12.7034 5.86621Z" fill="#FAFAFA"/>
<path d="M4.71373 13.043C5.02709 13.0429 5.3374 13.1045 5.62693 13.2244C5.91646 13.3443 6.17953 13.52 6.40111 13.7416C6.62269 13.9632 6.79844 14.2262 6.91831 14.5158C7.03818 14.8053 7.09982 15.1156 7.09972 15.429C7.09988 15.9011 6.96001 16.3627 6.6978 16.7553C6.4356 17.1479 6.06284 17.4539 5.62669 17.6347C5.19053 17.8154 4.71056 17.8628 4.2475 17.7707C3.78444 17.6786 3.35909 17.4513 3.02524 17.1174C2.6914 16.7836 2.46407 16.3583 2.372 15.8952C2.27993 15.4321 2.32726 14.9522 2.508 14.516C2.68875 14.0798 2.99479 13.7071 3.38741 13.4449C3.78003 13.1827 4.2416 13.0428 4.71373 13.043Z" fill="#FAFAFA"/>
</svg>
