<svg width="22" height="11" viewBox="0 0 22 11" fill="none" xmlns="http://www.w3.org/2000/svg">
<path d="M11.3286 0.5C13.9812 0.5 15.9323 1.03168 17.3589 1.86426C18.7892 2.69908 19.6614 3.81902 20.1831 4.9375C20.7019 6.0497 20.8719 7.15432 20.9136 7.97461C20.9345 8.38622 20.9233 8.7312 20.9068 8.97461C20.8985 9.09614 20.8882 9.19284 20.8804 9.26074C20.8765 9.29475 20.8732 9.32176 20.8706 9.34082C20.8694 9.35017 20.8685 9.35771 20.8677 9.36328C20.8673 9.36589 20.867 9.36838 20.8667 9.37012L20.8657 9.37305V9.37402C20.864 9.37395 20.8499 9.37094 20.732 9.35254V9.66406H2.02395V9.20508C1.79163 9.24203 1.79158 9.24247 1.79153 9.24219V9.23926C1.79126 9.2375 1.79096 9.23513 1.79055 9.23242C1.78973 9.22688 1.78795 9.21932 1.78665 9.20996C1.78403 9.1911 1.78082 9.16443 1.77688 9.13086C1.76901 9.06373 1.75881 8.96781 1.75052 8.84766C1.73397 8.6077 1.72372 8.26869 1.74466 7.86328C1.78646 7.05449 1.95623 5.9648 2.4761 4.86816C2.9989 3.76538 3.87215 2.66313 5.30227 1.8418C6.72817 1.02293 8.67759 0.500015 11.3286 0.5ZM11.3286 1.5C8.80727 1.50001 7.03985 1.99715 5.80032 2.70898C4.56512 3.41837 3.82426 4.35772 3.37942 5.2959C2.93177 6.24017 2.78006 7.1921 2.7427 7.91406C2.72732 8.21164 2.73373 8.46771 2.74368 8.66406H19.9185C19.9242 8.48489 19.9269 8.26869 19.9146 8.02539C19.8772 7.29021 19.7254 6.32089 19.2769 5.35938C18.8311 4.40383 18.089 3.44925 16.854 2.72852C15.6151 2.00549 13.8489 1.5 11.3286 1.5Z" fill="#CCCCCC"/>
<path d="M12.6953 9.16731C12.6953 9.52953 12.5514 9.87693 12.2953 10.1331C12.0392 10.3893 11.6919 10.5333 11.3297 10.5334C11.0593 10.5336 10.795 10.4536 10.5701 10.3035C10.3453 10.1534 10.17 9.94006 10.0664 9.69034C9.96284 9.44062 9.93567 9.1658 9.98833 8.90064C10.041 8.63547 10.1711 8.39189 10.3622 8.20069C10.5534 8.0095 10.7969 7.87929 11.0621 7.82654C11.3272 7.77379 11.602 7.80086 11.8518 7.90434C12.1015 8.00781 12.315 8.18304 12.4651 8.40786C12.6153 8.63267 12.6954 8.89697 12.6953 9.16731ZM3.65111 9.16443C3.65595 9.34681 3.6242 9.52831 3.55775 9.69822C3.4913 9.86813 3.39148 10.023 3.2642 10.1537C3.13691 10.2844 2.98473 10.3883 2.81664 10.4592C2.64855 10.5302 2.46796 10.5667 2.28551 10.5667C2.10307 10.5667 1.92247 10.5302 1.75438 10.4592C1.58629 10.3883 1.43412 10.2844 1.30683 10.1537C1.17954 10.023 1.07973 9.86813 1.01328 9.69822C0.946823 9.52831 0.915078 9.34681 0.919914 9.16443C0.919914 8.80225 1.06379 8.4549 1.31989 8.1988C1.57599 7.9427 1.92333 7.79883 2.28551 7.79883C2.64769 7.79883 2.99504 7.9427 3.25114 8.1988C3.50724 8.4549 3.65111 8.80225 3.65111 9.16443ZM21.7385 9.16731C21.7418 9.34889 21.709 9.52932 21.6418 9.69806C21.5747 9.8668 21.4745 10.0205 21.3473 10.1501C21.2201 10.2797 21.0683 10.3826 20.9008 10.4528C20.7333 10.5231 20.5535 10.5593 20.3719 10.5592C20.1903 10.5592 20.0105 10.523 19.8431 10.4527C19.6756 10.3823 19.5239 10.2794 19.3967 10.1497C19.2695 10.0201 19.1694 9.86638 19.1023 9.69762C19.0352 9.52886 19.0024 9.34841 19.0058 9.16683C19.0126 8.80889 19.1596 8.46791 19.4151 8.21719C19.6707 7.96648 20.0144 7.82605 20.3724 7.82612C20.7304 7.82618 21.0741 7.96672 21.3295 8.21753C21.585 8.46834 21.7318 8.80937 21.7385 9.16731Z" fill="#FAFAFA"/>
</svg>
