<svg
	class="table"
	id="SVGTable"
	height="453"
	width="838"
	preserveAspectRatio="xMidYMid meet"
	viewBox="0 0 838 453"
	x="0px"
	xmlns:xlink="http://www.w3.org/1999/xlink"
	xmlns="http://www.w3.org/2000/svg"
	y="0px"
>
	<defs>
		<marker
			id="arrow-black"
			viewBox="0 0 15 15"
			refX="0"
			refY="5"
			fill="#000000"
			markerUnits="strokeWidth"
			markerWidth="14"
			markerHeight="13"
			orient="auto"
		>
			<path d="M 0 0 L 10 5 L 0 10 z"></path>
		</marker>
	</defs>
	<path
		class="bounds table"
		fill="#D3D3D3"
		stroke="#000000"
		stroke-width="0.5"
		stroke-miterlimit="10"
		d="M0,49.812C0,22.301,23.127,0,51.66,0h730.138 c28.529,0,51.666,22.301,51.666,49.812v351.839c0,27.51-23.137,49.811-51.666,49.811H51.66C23.127,451.461,0,429.161,0,401.651 V49.812L0,49.812z"
	/>
	<rect
		class="cloth"
		x="31.405"
		y="31.398"
		fill="#4A98D8"
		stroke="#000000"
		stroke-width="0.5"
		stroke-miterlimit="10"
		width="770.06"
		height="385.407"
	/>
	<path
		fill="#333333"
		stroke="#000000"
		stroke-width="0.25"
		stroke-miterlimit="10"
		d="M802.566,395.038 c0,0,7.584,10.179,13.775,18.88c6.189,8.699-13.897,29.056-24.173,19.731c-10.265-9.333-16.164-16.845-16.164-16.845 s1.539-10.335,9.076-16.437C792.621,394.271,802.566,395.038,802.566,395.038z"
	/>
	<path
		fill="#333333"
		stroke="#000000"
		stroke-width="0.25"
		stroke-miterlimit="10"
		d="M779.786,30.832c0,0,9.985-7.764,18.521-14.11 c8.53-6.35,29.116,13.39,20.03,23.818c-9.087,10.442-16.447,16.467-16.447,16.467s-10.304-1.352-16.498-8.783 C779.2,40.797,779.786,30.832,779.786,30.832z"
	/>
	<path
		fill="#333333"
		stroke="#000000"
		stroke-width="0.25"
		stroke-miterlimit="10"
		d="M31.252,55.476c0,0-8.574-9.246-15.609-17.171 C8.601,30.387,27.018,8.692,38.225,16.856c11.197,8.168,17.828,14.963,17.828,14.963s-0.602,10.214-7.639,16.857 C41.359,55.319,31.252,55.476,31.252,55.476z"
	/>
	<path
		fill="#333333"
		stroke="#000000"
		stroke-width="0.25"
		stroke-miterlimit="10"
		d="M54.852,417.519c0,0-9.026,8.718-16.77,15.882 c-7.742,7.164-29.581-10.853-21.674-22.185c7.916-11.326,14.535-18.062,14.535-18.062s10.162,0.437,16.864,7.354 C54.53,407.433,54.852,417.519,54.852,417.519z"
	/>
	<polyline
		class="rail"
		fill="#387DA8"
		stroke="#000000"
		stroke-width="0.3"
		stroke-miterlimit="10"
		points="801.076,57.428 792.867,68.331 792.867,380.555 802.113,394.67 "
	/>
	<polyline
		class="rail"
		fill="#387DA8"
		stroke="#000000"
		stroke-width="0.3"
		stroke-miterlimit="10"
		points="779.479,31.398 764.558,40.75 436.024,40.75 433.993,31.398 "
	/>
	<polyline
		class="rail"
		fill="#387DA8"
		stroke="#000000"
		stroke-width="0.3"
		stroke-miterlimit="10"
		points="397.544,30.312 395.756,40.625 68.266,40.625 68.266,40.625 55.955,31.511 "
	/>
	<polyline
		class="rail"
		fill="#387DA8"
		stroke="#000000"
		stroke-width="0.3"
		stroke-miterlimit="10"
		points="31.405,55.044 41.873,69.23 41.873,378.316 31.405,393.152 "
	/>
	<polyline
		class="rail"
		fill="#387DA8"
		stroke="#000000"
		stroke-width="0.3"
		stroke-miterlimit="10"
		points="54.852,416.858 69.87,408.264 393.715,408.264 397.329,416.858 "
	/>
	<polyline
		class="rail"
		fill="#387DA8"
		stroke="#000000"
		stroke-width="0.3"
		stroke-miterlimit="10"
		points="433.378,416.858 436.086,408.264 765.043,408.264 775.925,416.858 "
	/>
	<path
		class="diamond"
		id="spot18_1_"
		fill="#6D6E70"
		d="M809.693,129.226c0-1.887,1.524-3.413,3.407-3.413c1.884,0,3.408,1.524,3.408,3.413 c0,1.88-1.524,3.406-3.408,3.406C811.22,132.632,809.693,131.105,809.693,129.226z"
	/>
	<path
		class="diamond"
		id="spot17_1_"
		fill="#6D6E70"
		d="M809.693,225.433c0-1.881,1.524-3.408,3.407-3.408c1.884,0,3.408,1.527,3.408,3.408 c0,1.885-1.524,3.409-3.408,3.409C811.22,228.842,809.693,227.318,809.693,225.433z"
	/>
	<path
		class="diamond"
		id="spot15_1_"
		fill="#6D6E70"
		d="M701.617,430.68c0-1.881,1.521-3.403,3.408-3.403c1.883,0,3.401,1.522,3.401,3.403 c0,1.892-1.521,3.41-3.401,3.41C703.14,434.09,701.617,432.567,701.617,430.68z"
	/>
	<path
		class="diamond"
		id="spot14_1_"
		fill="#6D6E70"
		d="M605.539,430.68c0-1.881,1.529-3.403,3.412-3.403c1.879,0,3.406,1.522,3.406,3.403 c0,1.892-1.525,3.41-3.406,3.41C607.068,434.09,605.539,432.567,605.539,430.68z"
	/>
	<path
		class="diamond"
		id="spot13_1_"
		fill="#6D6E70"
		d="M509.46,430.68c0-1.881,1.527-3.403,3.416-3.403c1.879,0,3.406,1.522,3.406,3.403 c0,1.892-1.527,3.41-3.406,3.41C510.992,434.09,509.46,432.567,509.46,430.68z"
	/>
	<path
		class="diamond"
		id="spot12_1_"
		fill="#6D6E70"
		d="M316.968,430.68c0-1.881,1.527-3.403,3.414-3.403c1.875,0,3.402,1.522,3.402,3.403 c0,1.892-1.527,3.41-3.402,3.41C318.494,434.09,316.968,432.567,316.968,430.68z"
	/>
	<path
		class="diamond"
		id="spot11_1_"
		fill="#6D6E70"
		d="M220.547,430.68c0-1.881,1.528-3.403,3.414-3.403c1.875,0,3.402,1.522,3.402,3.403 c0,1.892-1.527,3.41-3.402,3.41C222.074,434.09,220.547,432.567,220.547,430.68z"
	/>
	<path
		class="diamond"
		id="spot10_1_"
		fill="#6D6E70"
		d="M124.126,430.68c0-1.881,1.526-3.403,3.413-3.403c1.875,0,3.402,1.522,3.402,3.403 c0,1.892-1.527,3.41-3.402,3.41C125.655,434.09,124.126,432.567,124.126,430.68z"
	/>
	<path
		class="diamond"
		id="spot9_1_"
		fill="#6D6E70"
		d="M16.451,321.641c0-1.879,1.528-3.402,3.414-3.402c1.881,0,3.408,1.523,3.408,3.402 c0,1.889-1.527,3.412-3.408,3.412C17.979,325.053,16.451,323.525,16.451,321.641z"
	/>
	<path
		class="diamond"
		id="spot8_1_"
		fill="#6D6E70"
		d="M16.451,225.433c0-1.881,1.528-3.408,3.414-3.408c1.881,0,3.408,1.527,3.408,3.408 c0,1.885-1.527,3.409-3.408,3.409C17.979,228.842,16.451,227.318,16.451,225.433z"
	/>
	<path
		class="diamond"
		id="spot7_1_"
		fill="#6D6E70"
		d="M16.451,129.226c0-1.887,1.528-3.414,3.414-3.414c1.881,0,3.408,1.525,3.408,3.414 c0,1.879-1.527,3.406-3.408,3.406C17.979,132.632,16.451,131.104,16.451,129.226z"
	/>
	<path
		class="diamond"
		id="spot6_1_"
		fill="#6D6E70"
		d="M124.036,22.178c0-1.887,1.526-3.414,3.413-3.414c1.875,0,3.402,1.527,3.402,3.414 c0,1.884-1.527,3.41-3.402,3.41C125.564,25.589,124.036,24.062,124.036,22.178z"
	/>
	<path
		class="diamond"
		id="spot5_1_"
		fill="#6D6E70"
		d="M220.366,22.178c0-1.887,1.528-3.414,3.414-3.414c1.875,0,3.402,1.527,3.402,3.414 c0,1.884-1.527,3.41-3.402,3.41C221.893,25.589,220.366,24.062,220.366,22.178z"
	/>
	<path
		class="diamond"
		id="spot4_1_"
		fill="#6D6E70"
		d="M316.696,22.178c0-1.887,1.526-3.414,3.414-3.414c1.875,0,3.401,1.527,3.401,3.414 c0,1.884-1.526,3.41-3.401,3.41C318.222,25.589,316.696,24.062,316.696,22.178z"
	/>
	<path
		class="diamond"
		id="spot3_1_"
		fill="#6D6E70"
		d="M509.193,22.178c0-1.887,1.522-3.414,3.407-3.414c1.888,0,3.406,1.527,3.406,3.414 c0,1.884-1.521,3.41-3.406,3.41C510.72,25.589,509.193,24.062,509.193,22.178z"
	/>
	<circle id="spot16_1_" fill="#6D6E70" cx="813.101" cy="321.646" r="3.409" />
	<circle id="spot2_1_" fill="#6D6E70" cx="608.765" cy="22.178" r="3.409" />
	<ellipse id="spot1_1_" fill="#6D6E70" cx="704.931" cy="22.178" rx="3.406" ry="3.414" />
	<ellipse class="pocket" id="spot1_2_" fill="#333333" cx="801.097" cy="417.858" rx="3.406" ry="3.414" />
	<ellipse class="pocket" id="spot1_3_" fill="#333333" cx="801.097" cy="33.01" rx="3.406" ry="3.414" />
	<ellipse class="pocket" id="spot1_4_" fill="#333333" cx="416.434" cy="29.01" rx="3.406" ry="3.414" />
	<ellipse class="pocket" id="spot1_5_" fill="#333333" cx="31.113" cy="33.01" rx="3.405" ry="3.414" />
	<ellipse class="pocket" id="spot1_6_" fill="#333333" cx="31.113" cy="417.856" rx="3.405" ry="3.414" />
	<ellipse class="pocket" id="spot1_7_" fill="#333333" cx="416.797" cy="417.856" rx="3.406" ry="3.414" />
	<path
		fill="#333333"
		stroke="#000000"
		stroke-width="0.25"
		stroke-miterlimit="10"
		d="M397.946,31.796 c0,0-0.649-11.306,6.174-17.721s15.542-6.988,23.491-0.632c7.947,6.356,6.242,17.817,6.242,17.817s-8.838,10.052-17.93,9.67 C406.84,40.553,397.946,31.796,397.946,31.796z"
	/>
	<path
		fill="#333333"
		stroke="#000000"
		stroke-width="0.25"
		stroke-miterlimit="10"
		d="M415.347,407.122 c9.091-0.381,17.931,9.672,17.931,9.672s1.705,11.461-6.244,17.816c-7.948,6.354-16.667,5.781-23.491-0.635 c-6.823-6.412-6.174-17.721-6.174-17.721S406.262,407.501,415.347,407.122z"
	/>
	<g class="branding" opacity="0.1">
		<path
			fill="#08556D"
			d="M277.915,200.74c4.555,0,8.547,0.562,13.776,2.137l-1.743,6.466c-6.016-1.405-8.434-1.687-11.414-1.687 c-7.085,0-9.503,4.892-9.503,12.482c0,8.152,2.418,13.102,9.503,13.102c2.98,0,5.398-0.281,11.414-1.688l1.743,6.468 c-5.229,1.519-9.221,2.08-13.776,2.08c-13.438,0-17.037-8.996-17.037-19.96C260.877,209.343,264.476,200.74,277.915,200.74z"
		/>
		<path
			fill="#08556D"
			d="M303.049,239.537h-7.31v-39.359h7.31v14.9h0.112c2.418-2.586,5.51-4.217,9.166-4.217 c5.623,0,8.434,3.654,8.434,9.446v19.229h-7.31v-17.543c0-3.262-1.237-5.061-4.499-5.061c-2.305,0-4.498,1.237-5.904,2.137 L303.049,239.537L303.049,239.537z"
		/>
		<path
			fill="#08556D"
			d="M327.564,218.002l-1.068-5.848c3.992-0.787,8.209-1.293,11.583-1.293c7.141,0,11.077,1.855,11.077,9.446 v19.229h-7.311v-2.812c-0.057,0-0.057,0-0.111,0c-2.418,2.476-4.78,3.373-8.322,3.373c-5.623,0-8.715-3.769-8.715-8.658 c0-6.86,6.298-8.771,11.808-8.771h5.342V220.7c0-2.867-1.799-3.768-5.454-3.768C334.143,216.934,331.613,217.158,327.564,218.002z  M341.847,227.055h-4.892c-3.317,0-4.948,1.182-4.948,3.77c0,2.475,1.968,3.652,4.386,3.652c2.307,0,4.442-0.955,5.454-1.742 V227.055z"
		/>
		<path fill="#08556D" d="M353.936,200.178h7.311v39.359h-7.311V200.178z" />
		<path
			fill="#08556D"
			d="M373.335,221.264l10.57-9.84h8.828l-10.234,10.121l10.797,17.992h-8.604l-7.311-13.832l-4.048,3.711v10.121 h-7.311v-39.359h7.311L373.335,221.264L373.335,221.264z"
		/>
		<path
			fill="#08556D"
			d="M394.083,211.424h8.152l6.408,20.523h0.113l6.24-20.523h7.76l-9.951,29.125 c-2.698,8.041-6.299,10.797-12.54,10.797c-1.519,0-3.599-0.168-5.061-0.506l0.675-6.018c0.844,0.17,2.08,0.281,2.699,0.281 c2.699,0,4.836-2.08,5.904-5.172L394.083,211.424z"
		/>
		<path
			fill="#08556D"
			d="M427.595,238.188l0.73-3.484c5.734,1.404,9.559,1.688,12.707,1.688c6.467,0,9.055-3.543,9.055-6.916 c0-5.174-5.961-6.521-9.896-7.592c-6.02-1.519-12.033-4.835-12.033-11.302c0-7.085,5.678-9.84,12.875-9.84 c4.162,0,8.098,0.562,12.65,1.912l-0.953,3.485c-5.736-1.405-8.549-1.687-11.697-1.687c-6.465,0-8.49,2.98-8.49,6.241 c0,4.948,6.354,6.747,10.402,7.703c6.018,1.35,11.525,4.161,11.525,10.739c0,7.312-5.732,10.966-13.438,10.966 C436.872,240.1,432.149,239.537,427.595,238.188z"
		/>
		<path
			fill="#08556D"
			d="M463.581,214.291h-4.441v-2.586l4.441-0.281l0.506-7.873h3.43v7.873h8.322v2.867h-8.322v16.363 c0,4.104,1.125,6.24,5.117,6.24c0.9,0,1.799-0.059,3.092-0.281l0.396,3.094c-1.463,0.225-3.486,0.393-4.723,0.393 c-5.455,0-7.816-2.248-7.816-8.828L463.581,214.291L463.581,214.291z"
		/>
		<path fill="#08556D" d="M486.354,201.303v6.69h-3.938v-6.69H486.354z M486.354,211.424v28.113h-3.938v-28.113H486.354z" />
		<path
			fill="#08556D"
			d="M506.089,210.861c3.486,0,6.02,0.393,9.393,1.236l-0.73,3.205c-4.387-1.124-6.748-1.124-8.66-1.124 c-6.689,0-9.276,4.835-9.276,11.302c0,6.467,2.587,11.303,9.276,11.303c1.912,0,4.273,0,8.66-1.125l0.73,3.205 c-3.373,0.844-5.904,1.236-9.393,1.236c-9.953,0-13.438-5.959-13.438-14.621C492.649,216.821,496.136,210.861,506.089,210.861z"
		/>
		<path
			fill="#08556D"
			d="M524.14,223.737l14.957-12.313h4.893l-10.908,9.502l11.471,18.611h-4.666l-9.561-16.418l-6.186,5.004 v11.414h-3.938v-39.359h3.938V223.737L524.14,223.737z"
		/>
		<path
			fill="#08556D"
			d="M559.112,240.1c-4.273,0-8.377-0.393-11.75-1.234l0.729-3.205c4.441,1.125,8.715,1.234,10.57,1.234 c6.018,0,6.578-3.768,6.578-4.891c0-2.082-1.236-3.768-7.084-4.949c-5.734-1.068-10.234-2.924-10.234-8.604 c0-5.004,3.543-7.59,10.066-7.59c4.271,0,7.59,0.393,10.965,1.236l-0.732,3.205c-4.439-1.124-8.15-1.236-10.008-1.236 c-5.904,0-6.354,3.316-6.354,4.273c0,2.08,0.955,3.879,6.745,5.061c6.187,1.293,10.571,2.98,10.571,8.377 C569.179,237.119,565.636,240.1,559.112,240.1z"
		/>
	</g>
	<line
		class="balkline"
		opacity="0.5"
		fill="none"
		stroke="#000000"
		stroke-width="0.25"
		stroke-miterlimit="10"
		enable-background="new    "
		x1="223.772"
		y1="407.111"
		x2="223.772"
		y2="40.941"
	/>
	<g class="headspot">
		<circle id="outerdot_2_" fill="#FFFFFF" stroke="#818282" stroke-width="0.25" stroke-miterlimit="10" cx="223.774" cy="225.446" r="6.725" />
		<path
			id="innerdot_2_"
			fill="#868686"
			stroke="#FFFFFF"
			stroke-width="0.25"
			stroke-miterlimit="10"
			d="M221.306,225.446 c0-1.358,1.104-2.464,2.467-2.464c1.354,0,2.467,1.104,2.467,2.464c0,1.358-1.104,2.467-2.467,2.467 S221.306,226.805,221.306,225.446z"
		/>
	</g>
	<g class="footspot">
		<circle id="outerdot_1_" fill="#FFFFFF" stroke="#818282" stroke-width="0.25" stroke-miterlimit="10" cx="608.623" cy="225.446" r="6.725" />
		<path
			id="innerdot_1_"
			fill="#868686"
			stroke="#FFFFFF"
			stroke-width="0.25"
			stroke-miterlimit="10"
			d="M606.154,225.446 c0-1.358,1.104-2.464,2.467-2.464c1.354,0,2.467,1.104,2.467,2.464c0,1.358-1.104,2.467-2.467,2.467 S606.154,226.805,606.154,225.446z"
		/>
	</g>
	<g class="rackoutline" opacity="0.1">
		<path
			d="M671.906,169.136l-71.07,40.71c-5.52,2.759-8.97,8.97-8.97,15.18c0,6.209,3.45,11.73,8.97,15.181l71.07,40.709 c5.52,3.451,12.42,3.451,17.939,0c5.521-2.76,8.971-8.97,8.971-15.18v-81.42c0-6.9-3.45-12.42-8.971-15.18 C684.326,165.685,677.426,165.685,671.906,169.136L671.906,169.136z M687.087,174.655c3.45,1.38,5.52,4.831,5.52,8.97v82.111 c0,3.45-2.069,6.9-5.52,8.97c-3.451,2.07-7.591,2.07-11.04,0l-71.071-40.711c-3.449-1.379-5.52-4.829-5.52-8.969 s2.07-7.59,5.52-9.661l71.071-40.71C679.496,172.585,683.636,172.585,687.087,174.655z"
		/>
	</g>

	<!-- Editable Groups -->
	<g class="shapes"></g>
	<g class="lines"></g>
	<g class="balls"></g>
	<g class="text"></g>
	<g class="cues"></g>
</svg>
