<svg
	class="table"
	id="SVGTable"
	height="553"
	width="1054"
	preserveAspectRatio="xMidYMid meet"
	viewBox="0 0 1054 553"
	x="0px"
	xmlns:xlink="http://www.w3.org/1999/xlink"
	xmlns="http://www.w3.org/2000/svg"
	y="0px"
>
	<path
		id="inner"
		fill="#D3D3D3"
		stroke="#010101"
		stroke-width="0.5"
		stroke-miterlimit="10"
		d="M1053.296,535.719 c0,8.951-7.756,16.208-17.324,16.208H17.574c-9.568,0-17.324-7.257-17.324-16.208V16.458C0.25,7.507,8.006,0.25,17.574,0.25 h1018.398c9.568,0,17.324,7.257,17.324,16.208V535.719z"
	/>
	<path
		id="outer"
		class="cloth"
		fill="#4E98D2"
		stroke="#010101"
		stroke-width="0.5"
		stroke-miterlimit="10"
		d="M1036.759,519.718 c0,8.399-7.496,15.209-16.746,15.209H35.644c-9.249,0-16.746-6.81-16.746-15.209V32.459c0-8.399,7.497-15.209,16.746-15.209h984.37 c9.25,0,16.746,6.81,16.746,15.209V519.718z"
	/>
	<polygon
		class="rail"
		fill="#3A7EA9"
		stroke="#010101"
		stroke-width="0.3"
		stroke-miterlimit="10"
		points="31.875,17.642 50.397,31.25 500.897,31.25 522.397,17.642 "
	/>
	<polygon
		class="rail"
		fill="#3A7EA9"
		stroke="#010101"
		stroke-width="0.3"
		stroke-miterlimit="10"
		points="1021.531,17.642 1003.007,31.25 552.507,31.25 531.007,17.642 "
	/>
	<polygon
		class="rail"
		fill="#3A7EA9"
		stroke="#010101"
		stroke-width="0.3"
		stroke-miterlimit="10"
		points="31.179,534.249 49.702,520.641 500.202,520.641 521.702,534.249 "
	/>
	<polygon
		class="rail"
		fill="#3A7EA9"
		stroke="#010101"
		stroke-width="0.3"
		stroke-miterlimit="10"
		points="1022.968,534.249 1004.365,520.641 551.905,520.641 530.312,534.249 "
	/>
	<polyline
		class="rail"
		fill="#3A7EA9"
		stroke="#010101"
		stroke-width="0.3"
		stroke-miterlimit="10"
		points="17.397,519.718 31.099,500.75 31.875,50.75 17.397,32.459 "
	/>
	<polyline
		class="rail"
		fill="#3A7EA9"
		stroke="#010101"
		stroke-width="0.3"
		stroke-miterlimit="10"
		points="1037.007,519.704 1023.306,500.736 1022.531,50.736 1037.007,32.445 "
	/>
	<circle class="pocket" id="pocket_5_" fill="#030303" cx="29.897" cy="29.25" r="11" />
	<circle class="pocket" id="pocket_4_" fill="#030303" cx="525.759" cy="20.25" r="11" />
	<circle class="pocket" id="pocket_3_" fill="#030303" cx="1025.759" cy="29.25" r="11" />
	<circle class="pocket" id="pocket_2_" fill="#030303" cx="29.897" cy="522.25" r="11" />
	<circle class="pocket" id="pocket_1_" fill="#030303" cx="525.759" cy="531.25" r="11" />
	<circle class="pocket" id="pocket" fill="#030303" cx="1025.759" cy="522.25" r="11" />
	<line
		class="balkline"
		id="line_2_"
		opacity="0.5"
		fill="none"
		stroke="#010101"
		stroke-width="0.25"
		stroke-miterlimit="10"
		enable-background="new    "
		x1="236.275"
		y1="519.718"
		x2="236.275"
		y2="31.25"
	/>
	<path
		class="balkline"
		opacity="0.5"
		fill="none"
		stroke="#010101"
		stroke-width="0.25"
		stroke-miterlimit="10"
		d="M236.275,327.81 c0,0-54.279-4.155-54.279-52.325s54.279-54.169,54.279-54.169"
	/>
	<g class="branding" opacity="0.1">
		<path
			stroke-width="1"
			stroke="#000000"
			fill="#0E566E"
			d="M429.259,254.466c3.272,0,6.14,0.403,9.896,1.534l-1.252,4.646c-4.322-1.01-6.059-1.212-8.199-1.212 c-5.089,0-6.827,3.514-6.827,8.967c0,5.855,1.737,9.411,6.827,9.411c2.14,0,3.877-0.202,8.199-1.213l1.252,4.646 c-3.756,1.091-6.624,1.494-9.896,1.494c-9.653,0-12.238-6.463-12.238-14.338C417.02,260.646,419.605,254.466,429.259,254.466z"
		/>
		<path
			stroke-width="1"
			stroke="#000000"
			fill="#0E566E"
			d="M447.313,282.335h-5.251v-28.273h5.251v10.703h0.081c1.737-1.857,3.958-3.028,6.584-3.028 c4.04,0,6.058,2.625,6.058,6.784v13.813h-5.25v-12.602c0-2.344-0.889-3.636-3.232-3.636c-1.656,0-3.231,0.889-4.241,1.535 L447.313,282.335L447.313,282.335z"
		/>
		<path
			stroke-width="1"
			stroke="#000000"
			fill="#0E566E"
			d="M464.924,266.865l-0.768-4.2c2.868-0.565,5.897-0.929,8.32-0.929c5.13,0,7.957,1.332,7.957,6.784v13.813 h-5.252v-2.02c-0.041,0-0.041,0-0.079,0c-1.737,1.778-3.434,2.423-5.979,2.423c-4.039,0-6.26-2.708-6.26-6.22 c0-4.928,4.524-6.301,8.481-6.301h3.838v-1.413c0-2.06-1.292-2.707-3.918-2.707C469.649,266.098,467.832,266.259,464.924,266.865z  M475.184,273.368h-3.514c-2.382,0-3.555,0.849-3.555,2.709c0,1.777,1.414,2.622,3.15,2.622c1.658,0,3.191-0.686,3.918-1.251 V273.368z"
		/>
		<path stroke-width="1" stroke="#000000" fill="#0E566E" d="M483.867,254.062h5.252v28.273h-5.252V254.062z" />
		<path
			stroke-width="1"
			stroke="#000000"
			fill="#0E566E"
			d="M497.803,269.208l7.593-7.068h6.341l-7.351,7.271l7.755,12.925h-6.181l-5.251-9.937l-2.908,2.666v7.271 h-5.252v-28.273h5.252L497.803,269.208L497.803,269.208z"
		/>
		<path
			stroke-width="1"
			stroke="#000000"
			fill="#0E566E"
			d="M512.706,262.14h5.856l4.603,14.743h0.081l4.483-14.743h5.574l-7.148,20.922 c-1.938,5.776-4.525,7.756-9.008,7.756c-1.092,0-2.586-0.121-3.636-0.363l0.484-4.323c0.606,0.123,1.495,0.202,1.939,0.202 c1.938,0,3.474-1.494,4.241-3.715L512.706,262.14z"
		/>
		<path
			stroke-width="1"
			stroke="#000000"
			fill="#0E566E"
			d="M536.779,281.365l0.524-2.502c4.119,1.008,6.866,1.213,9.128,1.213c4.646,0,6.505-2.545,6.505-4.968 c0-3.718-4.282-4.685-7.108-5.455c-4.325-1.091-8.645-3.473-8.645-8.118c0-5.089,4.079-7.068,9.249-7.068 c2.99,0,5.816,0.404,9.086,1.374l-0.684,2.503c-4.12-1.009-6.142-1.212-8.402-1.212c-4.645,0-6.099,2.141-6.099,4.483 c0,3.554,4.564,4.846,7.472,5.533c4.323,0.97,8.279,2.988,8.279,7.714c0,5.253-4.117,7.878-9.653,7.878 C543.443,282.739,540.051,282.335,536.779,281.365z"
		/>
		<path
			stroke-width="1"
			stroke="#000000"
			fill="#0E566E"
			d="M562.63,264.199h-3.19v-1.857l3.19-0.202l0.363-5.655h2.463v5.655h5.979v2.06h-5.979v11.755 c0,2.947,0.809,4.482,3.677,4.482c0.646,0,1.292-0.043,2.221-0.202l0.284,2.223c-1.051,0.161-2.504,0.282-3.392,0.282 c-3.919,0-5.615-1.615-5.615-6.342L562.63,264.199L562.63,264.199z"
		/>
		<path
			stroke-width="1"
			stroke="#000000"
			fill="#0E566E"
			d="M578.987,254.87v4.806h-2.828v-4.806H578.987z M578.987,262.14v20.195h-2.828V262.14H578.987z"
		/>
		<path
			stroke-width="1"
			stroke="#000000"
			fill="#0E566E"
			d="M593.164,261.736c2.505,0,4.325,0.281,6.748,0.888l-0.524,2.302c-3.151-0.808-4.848-0.808-6.221-0.808 c-4.805,0-6.663,3.474-6.663,8.119s1.858,8.119,6.663,8.119c1.373,0,3.069,0,6.221-0.808l0.524,2.302 c-2.422,0.606-4.241,0.889-6.748,0.889c-7.149,0-9.652-4.281-9.652-10.503C583.511,266.017,586.015,261.736,593.164,261.736z"
		/>
		<path
			stroke-width="1"
			stroke="#000000"
			fill="#0E566E"
			d="M606.13,270.984l10.744-8.845h3.516l-7.836,6.826l8.24,13.369h-3.352l-6.867-11.794l-4.445,3.595v8.199 h-2.828v-28.273h2.828V270.984L606.13,270.984z"
		/>
		<path
			stroke-width="1"
			stroke="#000000"
			fill="#0E566E"
			d="M631.253,282.739c-3.07,0-6.018-0.282-8.441-0.887l0.523-2.302c3.191,0.808,6.262,0.886,7.594,0.886 c4.322,0,4.725-2.706,4.725-3.513c0-1.496-0.887-2.707-5.088-3.556c-4.119-0.768-7.352-2.101-7.352-6.18 c0-3.595,2.545-5.452,7.23-5.452c3.068,0,5.453,0.281,7.877,0.888l-0.527,2.302c-3.188-0.808-5.854-0.888-7.188-0.888 c-4.242,0-4.564,2.382-4.564,3.069c0,1.494,0.686,2.786,4.846,3.636c4.443,0.929,7.592,2.141,7.592,6.018 C638.484,280.598,635.939,282.739,631.253,282.739z"
		/>
	</g>

	<!-- Editable Groups -->
	<g class="shapes"></g>
	<g class="lines"></g>
	<g class="balls"></g>
	<g class="text"></g>
	<g class="cues"></g>
</svg>
