<svg data-linecolor="#ED2726" version="1.1" xmlns="http://www.w3.org/2000/svg" xmlns:xlink="http://www.w3.org/1999/xlink" x="0px" y="0px" width="19.176px" height="19.18px" viewBox="0 0 19.176 19.18" enable-background="new 0 0 19.176 19.18" xml:space="preserve">
    <path fill="#ED2726" d="M19.176,9.59c0,5.298-4.3,9.588-9.588,9.588C4.288,19.179,0,14.888,0,9.59C0,4.293,4.288,0,9.587,0 C14.875,0,19.176,4.293,19.176,9.59z"/>
    <path fill="#FFFFFF" d="M5.938,8.206L5.574,7.023c0.868-0.331,1.768-0.757,2.315-1.206h1.045v7.512H7.503V7.495L5.938,8.206z"/>
    <path fill="#FFFFFF" d="M10.108,8.206L9.744,7.023c0.868-0.331,1.769-0.757,2.313-1.206h1.046v7.512h-1.425V7.495L10.108,8.206z"/>
    <path fill="#F2F2F2" d="M8.643,0.99c0.334,0.579-0.697,1.8-2.302,2.724C4.734,4.64,3.164,4.918,2.829,4.338 c-0.334-0.581,0.695-1.8,2.302-2.727C6.736,0.689,8.308,0.41,8.643,0.99z"/>
    <rect x="0.008" y="7.95" opacity="0.4" fill="#F2F2F2" enable-background="new    " width="4.319" height="3.972"/>
    <rect x="15.121" y="7.95" opacity="0.4" fill="#F2F2F2" enable-background="new    " width="4.046" height="3.972"/>
</svg>
