<svg data-linecolor="#B4519E" version="1.1" id="Layer_1" xmlns="http://www.w3.org/2000/svg" xmlns:xlink="http://www.w3.org/1999/xlink" x="0px" y="0px" width="19.176px" height="19.18px" viewBox="0 0 19.176 19.18" enable-background="new 0 0 19.176 19.18" xml:space="preserve">
    <path fill="#B4519E" d="M19.176,9.591c0,5.297-4.294,9.587-9.588,9.587C4.288,19.179,0,14.888,0,9.591S4.288,0,9.587,0 C14.881,0,19.176,4.294,19.176,9.591z"/>
    <path fill="#FFFFFF" d="M5.383,8.308L5.052,7.215c0.795-0.304,1.626-0.698,2.135-1.113h0.959v6.929H6.831v-5.38L5.383,8.308z"/>
    <path fill="#FFFFFF" d="M9.544,7.611L9.149,6.558c0.829-0.332,1.426-0.506,2.307-0.506c1.558,0,2.294,0.923,2.294,2.085 c0,1.417-1.019,2.51-2.737,3.712v0.02h2.842v1.163H9.149v-1.254c2.668-1.699,3.217-2.632,3.217-3.358 c0-1.041-0.789-1.163-1.216-1.163C10.696,7.255,10.261,7.316,9.544,7.611z"/>
    <path fill="#F2F2F2" d="M8.643,0.99c0.334,0.579-0.697,1.8-2.302,2.724C4.734,4.64,3.164,4.918,2.829,4.338 c-0.334-0.581,0.695-1.8,2.302-2.727C6.736,0.689,8.308,0.41,8.643,0.99z"/>
    <rect x="0.008" y="7.95" opacity="0.4" fill="#F2F2F2" enable-background="new    " width="4.319" height="3.972"/>
    <rect x="15.121" y="7.95" opacity="0.4" fill="#F2F2F2" enable-background="new    " width="4.047" height="3.972"/>
</svg>
