<svg xmlns="http://www.w3.org/2000/svg" x="0px" y="0px" width="746.964px" height="405.093px" viewBox="0 0 746.964 405.093">
	<path
		fill="#E8E8E8"
		stroke="#000000"
		stroke-width="0.5"
		stroke-miterlimit="10"
		d="M0,44.54C0,19.883,20.713-0.103,46.267-0.103
	h653.924c25.553,0,46.271,19.986,46.271,44.642V359.85c0,24.654-20.721,44.641-46.271,44.641H46.267
	C20.713,404.491,0,384.504,0,359.85V44.54L0,44.54z"
	/>
	<rect x="33.905" y="31.398" fill="#BC3C3C" stroke="#000000" stroke-width="0.5" stroke-miterlimit="10" width="680.06" height="338.396" />
	<path
		fill="#333333"
		stroke="#000000"
		stroke-width="0.25"
		stroke-miterlimit="10"
		d="M714.275,348.084
	c0,0,7.563,10.155,13.746,18.836c6.175,8.681-13.866,28.987-24.118,19.686c-10.238-9.31-16.124-16.801-16.124-16.801
	s1.533-10.313,9.058-16.398C704.352,347.319,714.275,348.084,714.275,348.084z"
	/>
	<path
		fill="#333333"
		stroke="#000000"
		stroke-width="0.25"
		stroke-miterlimit="10"
		d="M692.398,30.802
	c0,0,10.038-7.805,18.622-14.187c8.579-6.383,29.272,13.463,20.139,23.947c-9.138,10.498-16.534,16.554-16.534,16.554
	s-10.363-1.359-16.59-8.831C691.81,40.823,692.398,30.802,692.398,30.802z"
	/>
	<path
		fill="#333333"
		stroke="#000000"
		stroke-width="0.25"
		stroke-miterlimit="10"
		d="M33.842,54.007c0,0-8.376-9.031-15.247-16.771
	c-6.88-7.733,11.109-28.925,22.058-20.951c10.937,7.981,17.415,14.616,17.415,14.616s-0.588,9.979-7.463,16.466
	C43.713,53.854,33.842,54.007,33.842,54.007z"
	/>
	<path
		fill="#333333"
		stroke="#000000"
		stroke-width="0.25"
		stroke-miterlimit="10"
		d="M56.481,370.564c0,0-8.872,8.57-16.479,15.61
	c-7.608,7.037-29.069-10.664-21.3-21.8c7.779-11.133,14.285-17.751,14.285-17.751s9.985,0.429,16.571,7.226
	C56.164,360.656,56.481,370.564,56.481,370.564z"
	/>
	<path
		fill="#333333"
		stroke="#000000"
		stroke-width="0.25"
		stroke-miterlimit="10"
		d="M358.946,31.796
	c0,0-0.649-11.306,6.174-17.721s15.542-6.988,23.491-0.632s6.243,17.817,6.243,17.817s-8.837,10.052-17.929,9.67
	C367.84,40.553,358.946,31.796,358.946,31.796z"
	/>
	<path
		fill="#333333"
		stroke="#000000"
		stroke-width="0.25"
		stroke-miterlimit="10"
		d="M376.891,361.194
	c9.092-0.382,17.929,9.671,17.929,9.671s1.706,11.461-6.243,17.816s-16.667,5.783-23.491-0.632
	c-6.823-6.415-6.174-17.721-6.174-17.721S367.806,361.572,376.891,361.194z"
	/>
	<polyline
		fill="#871A2A"
		stroke="#000000"
		stroke-width="0.3"
		stroke-miterlimit="10"
		points="713.796,57.225 705.587,66.639
	705.587,336.208 714.833,348.391 "
	/>
	<polyline
		fill="#871A2A"
		stroke="#000000"
		stroke-width="0.3"
		stroke-miterlimit="10"
		points="691.934,31.398 679.124,40.75
	397.038,40.75 395.295,31.398 "
	/>
	<polyline
		fill="#871A2A"
		stroke="#000000"
		stroke-width="0.3"
		stroke-miterlimit="10"
		points="359.295,30.312 357.714,39.663
	68.72,39.663 68.72,39.663 57.855,31.399 "
	/>
	<polyline
		fill="#871A2A"
		stroke="#000000"
		stroke-width="0.3"
		stroke-miterlimit="10"
		points="33.905,54.261 44.373,66.521
	44.373,333.655 33.905,346.476 "
	/>
	<polyline
		fill="#871A2A"
		stroke="#000000"
		stroke-width="0.3"
		stroke-miterlimit="10"
		points="55.933,369.857 69.203,361.263
	355.319,361.263 358.512,369.857 "
	/>
	<polyline
		fill="#871A2A"
		stroke="#000000"
		stroke-width="0.3"
		stroke-miterlimit="10"
		points="394.968,369.857 397.285,361.263
	678.698,361.263 688.008,369.857 "
	/>
	<path
		id="spot18_1_"
		fill="#6D6E70"
		d="M722.416,117.476c0-1.887,1.527-3.412,3.41-3.412c1.881,0,3.408,1.523,3.408,3.412
	c0,1.881-1.527,3.406-3.408,3.406C723.943,120.882,722.416,119.354,722.416,117.476z"
	/>
	<path
		id="spot17_1_"
		fill="#6D6E70"
		d="M722.416,201.933c0-1.881,1.527-3.407,3.41-3.407c1.881,0,3.408,1.526,3.408,3.407
	c0,1.887-1.527,3.41-3.408,3.41C723.943,205.343,722.416,203.818,722.416,201.933z"
	/>
	<circle id="spot16_1_" fill="#6D6E70" cx="725.824" cy="286.395" r="3.409" />
	<path
		id="spot15_1_"
		fill="#6D6E70"
		d="M626.283,383.679c0-1.881,1.523-3.404,3.408-3.404c1.883,0,3.402,1.523,3.402,3.404
	c0,1.891-1.52,3.41-3.402,3.41C627.806,387.089,626.283,385.566,626.283,383.679z"
	/>
	<path
		id="spot14_1_"
		fill="#6D6E70"
		d="M542.15,383.679c0-1.881,1.527-3.404,3.41-3.404c1.881,0,3.406,1.523,3.406,3.404
	c0,1.891-1.523,3.41-3.406,3.41S542.15,385.566,542.15,383.679z"
	/>
	<path
		id="spot13_1_"
		fill="#6D6E70"
		d="M458.017,383.679c0-1.881,1.527-3.404,3.416-3.404c1.879,0,3.406,1.523,3.406,3.404
	c0,1.891-1.527,3.41-3.406,3.41C459.546,387.089,458.017,385.566,458.017,383.679z"
	/>
	<path
		id="spot12_1_"
		fill="#6D6E70"
		d="M287.968,383.679c0-1.881,1.527-3.404,3.414-3.404c1.875,0,3.402,1.523,3.402,3.404
	c0,1.891-1.527,3.41-3.402,3.41C289.494,387.089,287.968,385.566,287.968,383.679z"
	/>
	<path
		id="spot11_1_"
		fill="#6D6E70"
		d="M202.047,383.679c0-1.881,1.528-3.404,3.414-3.404c1.875,0,3.402,1.523,3.402,3.404
	c0,1.891-1.527,3.41-3.402,3.41C203.574,387.089,202.047,385.566,202.047,383.679z"
	/>
	<path
		id="spot10_1_"
		fill="#6D6E70"
		d="M116.126,383.679c0-1.881,1.526-3.404,3.413-3.404c1.875,0,3.402,1.523,3.402,3.404
	c0,1.891-1.527,3.41-3.402,3.41C117.655,387.089,116.126,385.566,116.126,383.679z"
	/>
	<path
		id="spot9_1_"
		fill="#6D6E70"
		d="M18.951,286.392c0-1.879,1.528-3.405,3.414-3.405c1.881,0,3.408,1.526,3.408,3.405
	c0,1.886-1.527,3.412-3.408,3.412C20.479,289.804,18.951,288.276,18.951,286.392z"
	/>
	<path
		id="spot8_1_"
		fill="#6D6E70"
		d="M18.951,201.933c0-1.881,1.528-3.407,3.414-3.407c1.881,0,3.408,1.526,3.408,3.407
	c0,1.887-1.527,3.41-3.408,3.41C20.479,205.343,18.951,203.818,18.951,201.933z"
	/>
	<path
		id="spot7_1_"
		fill="#6D6E70"
		d="M18.951,117.476c0-1.887,1.528-3.414,3.414-3.414c1.881,0,3.408,1.525,3.408,3.414
	c0,1.879-1.527,3.406-3.408,3.406C20.479,120.882,18.951,119.354,18.951,117.476z"
	/>
	<path
		id="spot6_1_"
		fill="#6D6E70"
		d="M116.036,22.178c0-1.887,1.526-3.414,3.413-3.414c1.875,0,3.402,1.527,3.402,3.414
	c0,1.884-1.527,3.41-3.402,3.41C117.564,25.589,116.036,24.062,116.036,22.178z"
	/>
	<path
		id="spot5_1_"
		fill="#6D6E70"
		d="M201.866,22.178c0-1.887,1.528-3.414,3.414-3.414c1.875,0,3.402,1.527,3.402,3.414
	c0,1.884-1.527,3.41-3.402,3.41C203.393,25.589,201.866,24.062,201.866,22.178z"
	/>
	<path
		id="spot4_1_"
		fill="#6D6E70"
		d="M287.696,22.178c0-1.887,1.527-3.414,3.414-3.414c1.875,0,3.402,1.527,3.402,3.414
	c0,1.884-1.527,3.41-3.402,3.41C289.222,25.589,287.696,24.062,287.696,22.178z"
	/>
	<path
		id="spot3_1_"
		fill="#6D6E70"
		d="M457.748,22.178c0-1.887,1.525-3.414,3.412-3.414c1.883,0,3.404,1.527,3.404,3.414
	c0,1.884-1.521,3.41-3.404,3.41C459.275,25.589,457.748,24.062,457.748,22.178z"
	/>
	<circle id="spot2_1_" fill="#6D6E70" cx="545.376" cy="22.178" r="3.409" />
	<ellipse id="spot1_1_" fill="#6D6E70" cx="629.597" cy="22.178" rx="3.406" ry="3.414" />
	<ellipse id="spot1_2_" fill="#333333" cx="713.82" cy="370.857" rx="3.404" ry="3.414" />
	<ellipse id="spot1_3_" fill="#333333" cx="713.82" cy="33.01" rx="3.404" ry="3.414" />
	<ellipse id="spot1_4_" fill="#333333" cx="376.936" cy="29.01" rx="3.403" ry="3.414" />
	<ellipse id="spot1_5_" fill="#333333" cx="33.613" cy="33.01" rx="3.405" ry="3.414" />
	<ellipse id="spot1_6_" fill="#333333" cx="33.613" cy="370.856" rx="3.405" ry="3.413" />
	<ellipse id="spot1_7_" fill="#333333" cx="377.296" cy="370.856" rx="3.406" ry="3.413" />
	<circle id="outerdot_1_" fill="#FFFFFF" stroke="#818282" stroke-width="0.25" stroke-miterlimit="10" cx="545.123" cy="202.446" r="6.725" />
	<path
		id="innerdot_1_"
		fill="#868686"
		stroke="#FFFFFF"
		stroke-width="0.25"
		stroke-miterlimit="10"
		d="M542.654,202.446
	c0-1.358,1.104-2.464,2.467-2.464c1.357,0,2.467,1.104,2.467,2.464c0,1.356-1.104,2.468-2.467,2.468
	C543.759,204.914,542.654,203.805,542.654,202.446z"
	/>
	<g opacity="0.1">
		<path
			fill="#FFFFFF"
			d="M239.941,178.332c4.555,0,8.547,0.562,13.776,2.137l-1.743,6.466c-6.016-1.406-8.434-1.687-11.414-1.687
		c-7.085,0-9.503,4.892-9.503,12.483c0,8.153,2.418,13.101,9.503,13.101c2.98,0,5.398-0.281,11.414-1.687l1.743,6.466
		c-5.229,1.519-9.221,2.081-13.776,2.081c-13.438,0-17.037-8.997-17.037-19.961C222.904,186.935,226.502,178.332,239.941,178.332z"
		/>
		<path
			fill="#FFFFFF"
			d="M265.075,217.129h-7.31v-39.36h7.31v14.9h0.112c2.418-2.586,5.51-4.217,9.166-4.217
		c5.623,0,8.434,3.655,8.434,9.447v19.23h-7.31v-17.543c0-3.261-1.237-5.061-4.499-5.061c-2.305,0-4.498,1.237-5.904,2.137V217.129z
		"
		/>
		<path
			fill="#FFFFFF"
			d="M289.591,195.594l-1.068-5.848c3.992-0.787,8.209-1.293,11.583-1.293c7.141,0,11.077,1.855,11.077,9.447
		v19.23h-7.31v-2.812c-0.056,0-0.056,0-0.112,0c-2.418,2.475-4.78,3.374-8.322,3.374c-5.623,0-8.715-3.768-8.715-8.659
		c0-6.86,6.298-8.772,11.808-8.772h5.342v-1.968c0-2.868-1.799-3.768-5.454-3.768C296.169,194.525,293.639,194.75,289.591,195.594z
		 M303.873,204.647h-4.892c-3.317,0-4.948,1.181-4.948,3.767c0,2.475,1.968,3.655,4.386,3.655c2.305,0,4.442-0.956,5.454-1.743
		V204.647z"
		/>
		<path fill="#FFFFFF" d="M315.962,177.77h7.31v39.36h-7.31V177.77z" />
		<path
			fill="#FFFFFF"
			d="M335.361,198.855l10.571-9.84h8.828l-10.234,10.121l10.796,17.993h-8.603l-7.31-13.832l-4.048,3.711v10.121
		h-7.31v-39.36h7.31V198.855z"
		/>
		<path
			fill="#FFFFFF"
			d="M356.109,189.015h8.153l6.41,20.523h0.113l6.241-20.523h7.76l-9.952,29.126
		c-2.7,8.041-6.298,10.796-12.54,10.796c-1.518,0-3.599-0.168-5.061-0.506l0.675-6.017c0.843,0.169,2.081,0.281,2.699,0.281
		c2.699,0,4.836-2.08,5.904-5.173L356.109,189.015z"
		/>
		<path
			fill="#FFFFFF"
			d="M389.621,215.78l0.731-3.486c5.735,1.406,9.559,1.688,12.707,1.688c6.467,0,9.054-3.543,9.054-6.916
		c0-5.173-5.961-6.523-9.896-7.591c-6.017-1.518-12.033-4.835-12.033-11.302c0-7.085,5.679-9.84,12.876-9.84
		c4.161,0,8.098,0.562,12.652,1.912l-0.956,3.486c-5.735-1.406-8.547-1.687-11.696-1.687c-6.466,0-8.49,2.98-8.49,6.242
		c0,4.948,6.354,6.748,10.402,7.703c6.017,1.35,11.527,4.161,11.527,10.74c0,7.31-5.735,10.965-13.439,10.965
		C398.899,217.692,394.175,217.129,389.621,215.78z"
		/>
		<path
			fill="#FFFFFF"
			d="M425.607,191.883h-4.441v-2.586l4.441-0.281l0.507-7.872h3.43v7.872h8.321v2.868h-8.321v16.363
		c0,4.104,1.124,6.241,5.116,6.241c0.9,0,1.8-0.057,3.093-0.281l0.394,3.093c-1.462,0.225-3.486,0.394-4.723,0.394
		c-5.454,0-7.816-2.249-7.816-8.828V191.883z"
		/>
		<path fill="#FFFFFF" d="M448.38,178.894v6.691h-3.937v-6.691H448.38z M448.38,189.015v28.114h-3.937v-28.114H448.38z" />
		<path
			fill="#FFFFFF"
			d="M468.116,188.453c3.485,0,6.017,0.394,9.39,1.237l-0.73,3.205c-4.386-1.125-6.748-1.125-8.659-1.125
		c-6.691,0-9.278,4.835-9.278,11.301c0,6.467,2.587,11.303,9.278,11.303c1.911,0,4.273,0,8.659-1.125l0.73,3.205
		c-3.373,0.844-5.904,1.237-9.39,1.237c-9.953,0-13.439-5.96-13.439-14.62C454.676,194.413,458.163,188.453,468.116,188.453z"
		/>
		<path
			fill="#FFFFFF"
			d="M486.166,201.329l14.957-12.314h4.892l-10.908,9.502l11.471,18.612h-4.667l-9.56-16.419l-6.185,5.005
		v11.414h-3.937v-39.36h3.937V201.329z"
		/>
		<path
			fill="#FFFFFF"
			d="M521.139,217.692c-4.273,0-8.378-0.394-11.751-1.237l0.73-3.205c4.442,1.125,8.716,1.237,10.571,1.237
		c6.017,0,6.578-3.768,6.578-4.892c0-2.081-1.236-3.768-7.084-4.948c-5.735-1.068-10.234-2.924-10.234-8.604
		c0-5.004,3.543-7.591,10.065-7.591c4.273,0,7.591,0.394,10.965,1.237l-0.731,3.205c-4.442-1.125-8.153-1.237-10.009-1.237
		c-5.904,0-6.354,3.317-6.354,4.273c0,2.081,0.956,3.88,6.747,5.061c6.186,1.293,10.571,2.98,10.571,8.378
		C531.205,214.711,527.662,217.692,521.139,217.692z"
		/>
	</g>
</svg>
