<svg class="icon icon-pencil" width="20" height="20" viewBox="0 0 20 20" fill="none" xmlns="http://www.w3.org/2000/svg">
	<path
		d="M12.6249 3.90033L2.01464 14.5113C1.96126 14.5649 1.92271 14.6325 1.90436 14.7051L0.728314 19.4255C0.693135 19.5676 0.734891 19.7187 0.838592 19.8224C0.917056 19.9009 1.02397 19.9443 1.13333 19.9443C1.16683 19.9443 1.20109 19.9402 1.23443 19.9318L5.95482 18.7556C6.02839 18.7372 6.09523 18.6988 6.14861 18.6455L16.7598 8.03522L12.6249 3.90033Z"
		fill="#030504"
	/>
	<path
		d="M19.3884 2.45357L18.2073 1.27248C17.4179 0.483093 16.0421 0.483857 15.2537 1.27248L13.8069 2.71924L17.9416 6.85398L19.3884 5.40721C19.7827 5.01306 19.9999 4.48843 19.9999 3.93047C19.9999 3.3725 19.7827 2.84788 19.3884 2.45357Z"
		fill="#030504"
	/>
</svg>
