<svg class="icon icon-restart" width="50" height="50" viewBox="0 0 20 21" fill="none" xmlns="http://www.w3.org/2000/svg">
	<path
		d="M14.474 4.70698C13.3161 3.75459 11.9103 3 10.2143 3C6.18491 3 2.91839 6.35786 2.91839 10.5C2.91839 14.6421 6.18491 18 10.2143 18C13.3807 18 16.0784 15.9254 17.0868 13.0256C17.2676 12.5055 17.7778 12.1568 18.3034 12.2713L19.255 12.4787C19.7806 12.5932 20.1209 13.1262 19.9597 13.6531C18.6569 17.9112 14.788 21 10.2143 21C4.57312 21 0 16.299 0 10.5C0 4.70101 4.57312 0 10.2143 0C12.9221 0 15.0312 1.26847 16.5484 2.5746L18.2816 0.79289C18.5599 0.50689 18.9783 0.42134 19.3418 0.57612C19.7053 0.7309 19.9423 1.09554 19.9423 1.5V7C19.9423 7.55228 19.5068 8 18.9695 8H13.6191C13.2257 8 12.871 7.75636 12.7204 7.38268C12.5699 7.00901 12.6531 6.57889 12.9313 6.29289L14.474 4.70698Z"
		fill="black"
	/>
</svg>
