<svg class="icon icon-user-profile" width="50" height="50" viewBox="0 0 50 50" fill="none" xmlns="http://www.w3.org/2000/svg">
	<path
		d="M42.6777 7.32236C37.9558 2.60049 31.6777 0 25 0C18.3223 0 12.0442 2.60049 7.32227 7.32236C2.60049 12.0442 0 18.3223 0 25C0 31.6777 2.60049 37.9558 7.32227 42.6776C12.0442 47.3995 18.3223 50 25 50C31.6777 50 37.9558 47.3995 42.6777 42.6776C47.3995 37.9558 50 31.6777 50 25C50 18.3223 47.3995 12.0442 42.6777 7.32236ZM25 47.0703C18.4698 47.0703 12.594 44.2186 8.54961 39.6962C11.0569 33.049 17.4754 28.3203 25 28.3203C20.1459 28.3203 16.2109 24.3854 16.2109 19.5312C16.2109 14.6771 20.1459 10.7422 25 10.7422C29.8541 10.7422 33.7891 14.6771 33.7891 19.5312C33.7891 24.3854 29.8541 28.3203 25 28.3203C32.5246 28.3203 38.9431 33.049 41.4504 39.6962C37.406 44.2186 31.5302 47.0703 25 47.0703Z"
		fill="black"
	/>
</svg>
