<svg data-linecolor="#F8E100" version="1.1" xmlns="http://www.w3.org/2000/svg" xmlns:xlink="http://www.w3.org/1999/xlink" x="0px" y="0px" width="19.176px" height="19.18px" viewBox="0 0 19.176 19.18" enable-background="new 0 0 19.176 19.18" xml:space="preserve">
    <path fill="#F8E100" d="M19.176,9.591c0,5.297-4.293,9.587-9.587,9.587C4.288,19.179,0,14.888,0,9.591S4.288,0,9.588,0 C14.882,0,19.176,4.294,19.176,9.591z"/>
    <path fill="#F2F2F2" d="M8.643,0.99c0.334,0.58-0.697,1.8-2.302,2.724C4.734,4.64,3.164,4.918,2.829,4.338 c-0.334-0.581,0.695-1.8,2.302-2.726C6.736,0.689,8.308,0.41,8.643,0.99z"/>
    <path fill="#F2F2F2" d="M3.295,6.837c0.298,0.519,0.13,1.174-0.376,1.466C2.414,8.594,1.762,8.409,1.464,7.891 C1.165,7.373,1.333,6.717,1.839,6.426C2.345,6.135,2.997,6.319,3.295,6.837z"/>
</svg>
