<svg class="icon tv-channel-all" width="50" height="50" viewBox="0 0 13 16" fill="none" xmlns="http://www.w3.org/2000/svg">
	<path
		d="M6.50086 16L8.20286 14.138C8.20286 14.138 3.998 9.7499 3.28312 9.01881C2.56824 8.28745 2.46294 6.97523 2.54734 6.28718C2.63121 5.59886 3.30402 2.65178 6.64691 2.58736C9.96916 3.12492 10.4737 5.6419 10.3896 6.91081C10.4737 8.00758 9.38075 9.3198 8.3923 10.3952C9.10691 11.0838 10.1583 12.1594 10.1583 12.1594C10.1583 12.1594 13.1033 10.1156 12.9972 6.32995C12.8911 2.54432 9.73977 0 6.50086 0C3.26195 0 -0.141256 2.82393 0.0045238 6.7817C0.276241 9.66409 1.34856 10.632 1.81103 11.1268C2.27351 11.6213 6.50086 16 6.50086 16Z"
		fill="black"
	/>
</svg>
