<svg class="icon tv-channel-9ball" xmlns="http://www.w3.org/2000/svg" width="50" height="50" viewBox="0 0 18 27" xml:space="preserve">
	<g fill="black">
		<path d="M6.078 13.358a2.956 2.956 0 0 1 2.955-2.955c1.633 0 2.955 1.322 2.955 2.955a2.954 2.954 0 1 1-5.91 0z" />
		<path opacity=".4" d="M10.547 12.64h1.437v1.224h-1.437zM6.078 12.64h1.437v1.224H6.078z" />
		<path d="M5.929 23.714a2.954 2.954 0 0 1 5.91 0 2.955 2.955 0 1 1-5.91 0z" />
		<path
			d="M3.011 18.614a2.953 2.953 0 0 1 2.953-2.954 2.953 2.953 0 1 1 0 5.909 2.954 2.954 0 0 1-2.953-2.955zM11.962 13.358a2.953 2.953 0 1 1 5.906 0 2.952 2.952 0 1 1-5.906 0z"
		/>
		<path
			d="M8.884 18.615a2.953 2.953 0 1 1 5.907 0 2.954 2.954 0 1 1-5.907 0zM9.078 8.03a2.953 2.953 0 0 1 2.953-2.954A2.955 2.955 0 1 1 9.078 8.03z"
		/>
		<path
			d="M3.123 8.031a2.954 2.954 0 1 1 2.953 2.955 2.955 2.955 0 0 1-2.953-2.955zM0 13.358a2.955 2.955 0 1 1 5.91 0 2.955 2.955 0 1 1-5.91 0z"
		/>
		<path
			d="M6.168 2.954A2.954 2.954 0 0 1 9.123 0a2.955 2.955 0 1 1-2.955 2.954zM6.078 13.558a2.955 2.955 0 1 1 5.91.003 2.955 2.955 0 0 1-5.91-.003z"
		/>
		<path opacity=".4" d="M10.547 12.84h1.437v1.224h-1.437zM6.078 12.84h1.437v1.224H6.078z" />
		<path d="M5.929 23.915a2.955 2.955 0 0 1 5.91 0 2.955 2.955 0 1 1-5.91 0z" />
		<path
			d="M3.011 18.814a2.953 2.953 0 0 1 2.953-2.954 2.955 2.955 0 1 1-2.953 2.954zM11.962 13.558a2.954 2.954 0 1 1 5.906 0 2.952 2.952 0 1 1-5.906 0z"
		/>
		<path
			d="M8.884 18.815a2.953 2.953 0 1 1 5.907 0 2.954 2.954 0 1 1-5.907 0zM9.078 8.23a2.954 2.954 0 1 1 5.909 0 2.954 2.954 0 1 1-5.909 0z"
		/>
		<path
			d="M3.123 8.23a2.955 2.955 0 1 1 2.953 2.956A2.955 2.955 0 0 1 3.123 8.23zM0 13.558a2.955 2.955 0 1 1 5.91.002A2.955 2.955 0 0 1 0 13.558z"
		/>
		<path d="M6.168 3.154A2.954 2.954 0 0 1 9.123.2a2.955 2.955 0 1 1-2.955 2.954z" />
	</g>
</svg>
