<svg xmlns="http://www.w3.org/2000/svg" width="135px" height="23px" viewBox="0 0 135 23">
	<path fill="#2B3544" d="M7.538,0.248c2.016,0,3.781,0.249,6.095,0.946l-0.771,2.86C10.2,3.433,9.13,3.309,7.812,3.309 c-3.134,0-4.204,2.164-4.204,5.522c0,3.608,1.07,5.797,4.204,5.797c1.318,0,2.389-0.124,5.051-0.746l0.771,2.861 c-2.313,0.672-4.079,0.921-6.095,0.921C1.592,17.664,0,13.683,0,8.831C0,4.055,1.592,0.248,7.538,0.248z" />
	<path fill="#2B3544" d="M18.484,17.415H15.25V0h3.234v6.593h0.05c1.07-1.145,2.438-1.866,4.055-1.866 c2.488,0,3.732,1.617,3.732,4.18v8.509h-3.234V9.652c0-1.442-0.548-2.238-1.99-2.238c-1.02,0-1.99,0.547-2.612,0.945V17.415 L18.484,17.415z" />
	<path fill="#2B3544" d="M29.157,7.887l-0.473-2.588c1.767-0.349,3.632-0.572,5.125-0.572c3.159,0,4.9,0.821,4.9,4.18v8.509h-3.233 v-1.244c-0.025,0-0.025,0-0.05,0c-1.07,1.095-2.115,1.493-3.683,1.493c-2.487,0-3.856-1.668-3.856-3.832 c0-3.035,2.787-3.881,5.225-3.881h2.364V9.08c0-1.269-0.797-1.666-2.414-1.666C32.067,7.414,30.948,7.514,29.157,7.887z  M35.477,11.892h-2.165c-1.468,0-2.188,0.522-2.188,1.667c0,1.095,0.87,1.617,1.939,1.617c1.021,0,1.966-0.423,2.414-0.771V11.892z " />
	<path fill="#2B3544" d="M40.65,0h3.234v17.415H40.65V0z" />
	<path fill="#2B3544" d="M49.06,9.329l4.677-4.354h3.906l-4.528,4.478l4.777,7.962h-3.807l-3.234-6.12l-1.791,1.642v4.479h-3.234V0 h3.234V9.329z" />
	<path fill="#2B3544" d="M58.065,4.976h3.607l2.837,9.08h0.049l2.762-9.08h3.434L66.35,17.862c-1.193,3.558-2.785,4.776-5.548,4.776 c-0.672,0-1.593-0.074-2.239-0.224l0.299-2.662c0.373,0.075,0.92,0.124,1.193,0.124c1.194,0,2.141-0.92,2.613-2.288L58.065,4.976z" />
	<path fill="#2B3544" d="M72.719,16.817l0.324-1.543c2.537,0.622,4.229,0.747,5.621,0.747c2.861,0,4.006-1.567,4.006-3.06 c0-2.289-2.637-2.887-4.379-3.359c-2.662-0.672-5.322-2.14-5.322-5.001c0-3.134,2.512-4.354,5.695-4.354 c1.842,0,3.584,0.249,5.598,0.846L83.84,2.637c-2.539-0.622-3.781-0.746-5.176-0.746c-2.861,0-3.756,1.318-3.756,2.761 c0,2.189,2.811,2.986,4.602,3.409c2.662,0.597,5.102,1.841,5.102,4.751c0,3.234-2.539,4.852-5.947,4.852 C76.824,17.664,74.734,17.415,72.719,16.817z" />
	<path fill="#2B3544" d="M88.467,6.244H86.5V5.1l1.967-0.124l0.225-3.483h1.518v3.483h3.682v1.269h-3.682v7.239 c0,1.816,0.496,2.762,2.264,2.762c0.396,0,0.795-0.024,1.367-0.124l0.176,1.368c-0.648,0.1-1.543,0.175-2.092,0.175 c-2.412,0-3.457-0.996-3.457-3.906V6.244L88.467,6.244z" />
	<path fill="#2B3544" d="M98.367,0.497v2.961h-1.74V0.497H98.367z M98.367,4.976v12.439h-1.74V4.976H98.367z" />
	<path fill="#2B3544" d="M106.926,4.727c1.543,0,2.662,0.174,4.154,0.547l-0.322,1.419c-1.941-0.498-2.986-0.498-3.832-0.498 c-2.961,0-4.105,2.14-4.105,5.001c0,2.86,1.145,5,4.105,5c0.846,0,1.891,0,3.832-0.497l0.322,1.418 c-1.492,0.373-2.611,0.548-4.154,0.548c-4.404,0-5.945-2.638-5.945-6.469S102.521,4.727,106.926,4.727z" />
	<path fill="#2B3544" d="M114.738,10.424l6.617-5.448h2.164l-4.826,4.204l5.074,8.235h-2.064l-4.229-7.265l-2.736,2.214v5.051 h-1.742V0h1.742V10.424L114.738,10.424z" />
	<path fill="#2B3544" d="M130.037,17.664c-1.891,0-3.707-0.175-5.199-0.548l0.324-1.418c1.965,0.497,3.855,0.547,4.676,0.547 c2.662,0,2.912-1.667,2.912-2.164c0-0.921-0.547-1.667-3.135-2.189c-2.537-0.473-4.527-1.294-4.527-3.807 c0-2.214,1.566-3.358,4.451-3.358c1.893,0,3.359,0.174,4.852,0.548l-0.322,1.418c-1.965-0.498-3.607-0.548-4.43-0.548 c-2.611,0-2.811,1.468-2.811,1.892c0,0.92,0.424,1.716,2.984,2.238c2.738,0.572,4.678,1.319,4.678,3.707 C134.49,16.345,132.924,17.664,130.037,17.664z" />
</svg>
