<svg data-linecolor="#E29626" version="1.1" id="Layer_1" xmlns="http://www.w3.org/2000/svg" xmlns:xlink="http://www.w3.org/1999/xlink" x="0px" y="0px" width="19.168px" height="19.18px" viewBox="0 0 19.168 19.18" enable-background="new 0 0 19.168 19.18" xml:space="preserve">
    <path fill="#E29626" d="M19.168,9.59c0,5.298-4.287,9.588-9.582,9.588C4.288,19.179,0,14.888,0,9.59C0,4.293,4.288,0,9.587,0 C14.881,0,19.168,4.293,19.168,9.59z"/>
    <path fill="#FFFFFF" d="M5.093,8.267L4.744,7.133c0.832-0.316,1.695-0.725,2.217-1.154h1v7.195H6.598V7.587L5.093,8.267z"/>
    <path fill="#FFFFFF" d="M12.648,9.467c0.99,0.241,1.451,0.967,1.451,1.765c0,1.322-0.958,2.05-2.606,2.05 c-0.893,0-1.647-0.117-2.49-0.518l0.41-1.039c0.683,0.305,1.336,0.432,1.996,0.432c1.026,0,1.291-0.599,1.291-0.998 c0-0.662-0.483-0.987-1.408-0.987h-0.944V9.036h0.884c1.035,0,1.304-0.568,1.304-1.071c0-0.42-0.301-0.906-1.126-0.906 c-0.641,0-1.16,0.127-1.843,0.431L9.164,6.442c0.847-0.39,1.688-0.517,2.489-0.517c1.237,0,2.238,0.642,2.238,1.892 c0,0.787-0.474,1.345-1.243,1.629V9.467z"/>
    <path fill="#F2F2F2" d="M8.643,0.99c0.334,0.579-0.697,1.8-2.302,2.724C4.734,4.64,3.164,4.918,2.829,4.338 c-0.334-0.581,0.695-1.8,2.302-2.727C6.736,0.689,8.308,0.41,8.643,0.99z"/>
    <rect x="0.007" y="7.95" opacity="0.4" fill="#F2F2F2" enable-background="new    " width="4.32" height="3.972"/>
    <rect x="15.122" y="7.95" opacity="0.4" fill="#F2F2F2" enable-background="new    " width="4.046" height="3.972"/>
</svg>
