<svg class="icon icon-gesture-drag" width="50" height="50" viewBox="0 0 42 46" fill="none" xmlns="http://www.w3.org/2000/svg">
	<path
		fill-rule="evenodd"
		clip-rule="evenodd"
		d="M14.4419 5.34883C13.5556 5.34883 12.8372 6.06726 12.8372 6.95348V28.2682C12.8372 28.9175 12.4457 29.5031 11.8455 29.7511C11.2452 29.9993 10.5546 29.861 10.0961 29.401L6.62943 25.9234C5.78543 25.0768 4.3967 25.1532 3.65009 26.0895C3.07708 26.8079 3.06114 27.8257 3.61166 28.5621L10.0388 37.1586C11.5404 39.1669 12.1534 39.9721 12.8682 40.5895C14.0058 41.5724 15.3687 42.2558 16.8341 42.5789C17.7545 42.7819 18.7633 42.7907 21.2661 42.7907C23.6044 42.7907 25.2829 42.7898 26.6094 42.7051C27.9226 42.6212 28.781 42.4595 29.4879 42.1873C31.884 41.2648 33.779 39.3646 34.7 36.9579C34.972 36.2471 35.1333 35.3845 35.217 34.0663C35.3015 32.7351 35.3023 31.0508 35.3023 28.7055V23.4157C35.3023 22.1082 34.3571 20.9925 33.0676 20.7777L32.093 20.615V23C32.093 23.8862 31.3746 24.6046 30.4884 24.6046C29.6022 24.6046 28.8837 23.8862 28.8837 23V20.8605C28.8837 19.3833 27.6864 18.186 26.2093 18.186H25.6744V20.8605C25.6744 21.7466 24.956 22.4651 24.0698 22.4651C23.1836 22.4651 22.4651 21.7466 22.4651 20.8605V18.7209C22.4651 17.2439 21.2678 16.0465 19.7907 16.0465H19.2558V20.8605C19.2558 21.7466 18.5374 22.4651 17.6512 22.4651C16.765 22.4651 16.0465 21.7466 16.0465 20.8605V6.95348C16.0465 6.06726 15.3281 5.34883 14.4419 5.34883ZM19.2558 12.8372V6.95348C19.2558 4.29481 17.1004 2.13953 14.4419 2.13953C11.7832 2.13953 9.6279 4.29481 9.6279 6.95348V24.3855L8.9023 23.6577C6.70419 21.4527 3.08191 21.6546 1.14097 24.0884C-0.342433 25.9485 -0.383297 28.5784 1.04131 30.4837L7.46845 39.0803C7.50872 39.134 7.54851 39.1873 7.58788 39.2399C8.93234 41.0386 9.75929 42.145 10.7702 43.0181C12.3105 44.3487 14.1567 45.2749 16.143 45.7129C17.4468 46.0004 18.826 46.0002 21.0667 46H21.2661H21.322C23.5924 46 25.3732 46 26.8141 45.908C28.2797 45.8143 29.5029 45.6206 30.6411 45.1822C33.8883 43.9319 36.4521 41.3589 37.6973 38.1049C38.1336 36.9647 38.3265 35.7392 38.4198 34.2698C38.5116 32.8249 38.5116 31.0389 38.5116 28.7607V23C38.5116 22.8449 38.4896 22.6949 38.4485 22.5528C38.0809 20.0607 36.1438 18.0367 33.5952 17.6119L30.7682 17.1408C29.6893 15.82 28.0478 14.9767 26.2093 14.9767H24.3295C23.2503 13.67 21.6179 12.8372 19.7907 12.8372H19.2558Z"
		fill="black"
	/>
	<path
		fill-rule="evenodd"
		clip-rule="evenodd"
		d="M33.6168 0.48623C34.2345 -0.149276 35.2504 -0.163696 35.8858 0.453988C36.0811 0.643764 36.4701 0.955323 37.0508 1.41147C37.0929 1.44451 37.1357 1.47808 37.1791 1.51212C37.6971 1.9188 38.305 2.39585 38.885 2.88739C39.5065 3.41414 40.1522 4.00373 40.6544 4.59313C40.9058 4.88847 41.154 5.22138 41.3457 5.57952C41.5305 5.92493 41.7209 6.40087 41.7209 6.95349C41.7209 7.50611 41.5305 7.98205 41.3457 8.32745C41.154 8.68559 40.9058 9.0185 40.6544 9.31384C40.1522 9.90324 39.5065 10.4928 38.885 11.0196C38.305 11.5111 37.6971 11.9882 37.1791 12.3948C37.1357 12.4289 37.0929 12.4625 37.0508 12.4955C36.4701 12.9517 36.0811 13.2632 35.8858 13.453C35.2504 14.0707 34.2345 14.0562 33.6168 13.4207C32.9991 12.7853 33.0135 11.7693 33.6491 11.1517C33.9947 10.8156 34.5449 10.3829 35.0685 9.97166C35.1089 9.93996 35.1496 9.90806 35.1902 9.87598C35.7161 9.46325 36.2782 9.02188 36.8103 8.5711C36.8154 8.56678 36.8203 8.56246 36.8255 8.55814H27.2791C26.3929 8.55814 25.6744 7.8397 25.6744 6.95349C25.6744 6.06727 26.3929 5.34884 27.2791 5.34884H36.8255C36.8203 5.34451 36.8154 5.34019 36.8103 5.33587C36.2782 4.88509 35.7161 4.44373 35.1902 4.03099C35.1496 3.99892 35.1089 3.96702 35.0685 3.93531C34.5449 3.52403 33.9947 3.09135 33.6491 2.75531C33.0135 2.13763 32.9991 1.12171 33.6168 0.48623Z"
		fill="black"
	/>
</svg>
