<svg class="icon icon-gesture-tap" width="50" height="50" viewBox="0 0 488 683" fill="none" xmlns="http://www.w3.org/2000/svg">
	<path
		d="M72.9011 181.047C83.7865 179.167 91.0834 168.823 89.2084 157.938C78.5573 96.2188 126.167 40 188.401 40C250.448 40 298.141 95.9531 287.635 157.693C285.787 168.583 293.109 178.911 304 180.766C314.891 182.625 325.219 175.292 327.073 164.401C341.688 78.4688 275.365 0 188.401 0C101.537 0 34.8959 78.4583 49.7917 164.74C51.6719 175.656 62.0573 182.922 72.9011 181.047Z"
		fill="black"
	/>
	<path
		d="M401.219 320.859C386.229 291.437 350.526 279.693 321.219 294.193C307.594 267.448 276.432 254.812 248.109 264.646V142.161C248.109 109.516 221.875 82.2396 189.62 81.3542C155.823 80.3958 127.818 107.464 127.818 141.333V449.443L104.323 424.839C81.7709 401.229 44.0104 399.568 20.1406 421.146C-5.04686 443.911 -6.30207 482.677 16.8906 507.042L151.922 651.068C170.75 671.146 197.344 682.667 224.875 682.667H387.734C442.875 682.667 487.734 637.807 487.734 582.667V374.667C487.734 330.359 441 301.177 401.219 320.859ZM447.734 582.667C447.734 615.75 420.818 642.667 387.734 642.667H224.875C208.354 642.667 192.401 635.755 181.104 623.703C180.62 623.193 46.3698 480 45.8854 479.49C38.1511 471.385 38.5208 458.453 46.9583 450.818C54.9115 443.635 67.6667 444.375 75.3906 452.464L133.349 513.156C145.776 526.177 167.813 517.344 167.813 499.349V141.333C167.813 130.094 177.135 121.021 188.531 121.339C199.328 121.635 208.109 130.974 208.109 142.161C208.109 362.234 207.734 262.479 207.734 381.333C207.734 392.411 216.755 401.437 227.922 401.323C239.073 401.437 248.109 392.417 248.109 381.333V317.531C249.891 308.312 258.005 301.333 267.734 301.333C278.76 301.333 287.734 310.307 287.734 321.333V381.333C287.734 392.38 296.688 401.333 307.734 401.333C318.781 401.333 327.734 392.38 327.734 381.333V348C327.734 336.974 336.708 328 347.734 328C358.76 328 367.734 336.974 367.734 348V381.333C367.734 392.38 376.688 401.333 387.734 401.333C398.781 401.333 407.734 392.38 407.734 381.333V374.667C407.734 363.641 416.708 354.667 427.734 354.667C438.76 354.667 447.734 363.641 447.734 374.667V582.667Z"
		fill="black"
	/>
</svg>
