<svg class="icon icon-settings" height="50" viewBox="0 0 32 32" width="50" xmlns="http://www.w3.org/2000/svg">
	<path
		d="m27.8 18.2c-.8-.5-1.3-1.3-1.3-2.2s.5-1.7 1.3-2.2c.6-.4 1.1-.9 1.2-1.6s.1-1.4-.3-2l-1.3-2.3c-.7-1.3-2.4-1.7-3.7-1-.8.5-1.7.5-2.5 0-.7-.5-1.2-1.3-1.2-2.2 0-1.5-1.2-2.7-2.7-2.7h-2.6c-1.5 0-2.7 1.2-2.7 2.7 0 .9-.5 1.7-1.3 2.2-.8.4-1.7.4-2.5 0-1.3-.7-2.9-.3-3.7 1l-1.3 2.3c-.4.6-.5 1.3-.3 2s.6 1.3 1.2 1.6c.9.5 1.4 1.3 1.4 2.2s-.5 1.7-1.3 2.2c-.6.4-1.1.9-1.2 1.6s-.1 1.4.3 2l1.3 2.3c.7 1.3 2.4 1.7 3.7 1 .8-.5 1.7-.5 2.5 0s1.3 1.3 1.3 2.2c0 1.5 1.2 2.7 2.7 2.7h2.6c1.5 0 2.7-1.2 2.7-2.7 0-.9.5-1.7 1.3-2.2s1.7-.5 2.5 0c1.3.7 2.9.3 3.7-1l1.3-2.3c.4-.6.5-1.3.3-2s-.8-1.2-1.4-1.6zm-11.8 2.8c-2.8 0-5-2.2-5-5s2.2-5 5-5 5 2.2 5 5-2.2 5-5 5z"
		fill="black"
	></path>
</svg>
