<svg class="icon icon-share-outline" width="21" height="24" viewBox="0 0 21 24" fill="none" xmlns="http://www.w3.org/2000/svg">
	<path
		d="M17.0508 16.1435C15.8947 16.1435 14.8532 16.6401 14.1303 17.43L7.62845 13.4244C7.80204 12.9824 7.89831 12.5023 7.89831 12C7.89831 11.4976 7.80204 11.0175 7.62845 10.5756L14.1303 6.56982C14.8532 7.35974 15.8947 7.85651 17.0508 7.85651C19.2284 7.85651 21 6.0943 21 3.92816C21 1.76202 19.2284 0 17.0508 0C14.8731 0 13.1015 1.76221 13.1015 3.92834C13.1015 4.4306 13.198 4.91071 13.3714 5.35272L6.86967 9.35834C6.14679 8.56842 5.10527 8.07166 3.94925 8.07166C1.77158 8.07166 0 9.83405 0 12C0 14.1661 1.77158 15.9283 3.94925 15.9283C5.10527 15.9283 6.14679 15.4318 6.86967 14.6417L13.3714 18.6473C13.198 19.0893 13.1015 19.5694 13.1015 20.0718C13.1015 22.2378 14.8731 24 17.0508 24C19.2284 24 21 22.2378 21 20.0718C21 17.9057 19.2284 16.1435 17.0508 16.1435ZM14.5416 3.92834C14.5416 2.55212 15.6672 1.43243 17.0508 1.43243C18.4343 1.43243 19.5599 2.55212 19.5599 3.92834C19.5599 5.30457 18.4343 6.42426 17.0508 6.42426C15.6672 6.42426 14.5416 5.30457 14.5416 3.92834ZM3.94925 14.4959C2.56552 14.4959 1.43987 13.3762 1.43987 12C1.43987 10.6238 2.56552 9.50409 3.94925 9.50409C5.33279 9.50409 6.45825 10.6238 6.45825 12C6.45825 13.3762 5.33279 14.4959 3.94925 14.4959ZM14.5416 20.0717C14.5416 18.6954 15.6672 17.5757 17.0508 17.5757C18.4343 17.5757 19.5599 18.6954 19.5599 20.0717C19.5599 21.4479 18.4343 22.5676 17.0508 22.5676C15.6672 22.5676 14.5416 21.4479 14.5416 20.0717Z"
		fill="#030504"
	/>
</svg>
