<svg class="icon icon-share-fill" width="20" height="22" viewBox="0 0 20 22" fill="none" xmlns="http://www.w3.org/2000/svg">
	<path
		d="M20 17.8661C20 20.1455 18.1605 22 15.8996 22C13.6387 22 11.7991 20.1455 11.7991 17.8661C11.7991 17.4488 11.8621 17.0463 11.9767 16.6662L7.08863 13.8216C6.33996 14.6266 5.27904 15.1333 4.10043 15.1333C1.83954 15.1333 0 13.2791 0 10.9999C0 8.72043 1.83954 6.86597 4.10043 6.86597C5.27904 6.86597 6.33996 7.37288 7.08863 8.17795L11.9765 5.33378C11.8618 4.95372 11.7989 4.55118 11.7989 4.13391C11.7989 1.85445 13.6385 0 15.8993 0C18.1602 0 19.9998 1.85445 19.9998 4.13391C19.9998 6.41313 18.1602 8.26735 15.8993 8.26735C14.7193 8.26735 13.6575 7.7595 12.9088 6.9528L8.02256 9.79627C8.13794 10.1773 8.20109 10.5812 8.20109 10.9999C8.20109 11.4186 8.13794 11.8225 8.02256 12.2035L12.9088 15.047C13.6577 14.2403 14.7196 13.7324 15.8993 13.7324C18.1605 13.7327 20 15.5866 20 17.8661Z"
		fill="#030504"
	/>
</svg>
