<svg data-linecolor="#3A4ABA" version="1.1" xmlns="http://www.w3.org/2000/svg" xmlns:xlink="http://www.w3.org/1999/xlink" x="0px" y="0px" width="19.176px" height="19.18px" viewBox="0 0 19.176 19.18" enable-background="new 0 0 19.176 19.18" xml:space="preserve">
    <path fill="#3A4ABA" d="M19.176,9.591c0,5.297-4.294,9.587-9.588,9.587C4.288,19.179,0,14.888,0,9.591S4.288,0,9.587,0 C14.881,0,19.176,4.294,19.176,9.591z"/>
	<path fill="#FFFFFF" d="M4.547,8.135L4.164,6.887C5.079,6.54,6.027,6.09,6.603,5.615h1.102v7.915H6.203V7.384L4.547,8.135z"/>
	<path fill="#FFFFFF" d="M8.85,9.546c0-2.22,0.564-3.988,2.924-3.988c2.355,0,2.914,1.77,2.914,3.988 c0,2.243-0.559,4.104-2.914,4.104C9.416,13.649,8.85,11.789,8.85,9.546z M10.442,9.546c0,1.558,0.276,2.865,1.332,2.865 c1.051,0,1.328-1.307,1.328-2.865c0-1.561-0.274-2.742-1.328-2.742C10.719,6.804,10.442,7.985,10.442,9.546z"/>
    <path fill="#F2F2F2" d="M8.643,0.99c0.334,0.578-0.697,1.8-2.302,2.724C4.734,4.64,3.164,4.918,2.829,4.338 c-0.334-0.581,0.695-1.8,2.302-2.728C6.736,0.689,8.308,0.41,8.643,0.99z"/>
    <rect x="0.01" y="7.95" opacity="0.4" fill="#F2F2F2" enable-background="new    " width="4.317" height="3.972"/>
    <rect x="15.121" y="7.95" opacity="0.4" fill="#F2F2F2" enable-background="new    " width="4.045" height="3.972"/>
</svg>
