<svg data-linecolor="#30C0D8" version="1.1" xmlns="http://www.w3.org/2000/svg" xmlns:xlink="http://www.w3.org/1999/xlink" x="0px" y="0px" width="19.176px" height="19.178px" viewBox="0 0 19.176 19.178" enable-background="new 0 0 19.176 19.178" xml:space="preserve">
    <path fill="#30C0D8" d="M19.176,9.59c0,5.298-4.294,9.587-9.582,9.587C4.288,19.178,0,14.888,0,9.59S4.288,0,9.594,0 C14.881,0,19.176,4.293,19.176,9.59z"/>
    <path fill="#F2F2F2" d="M8.643,0.99c0.334,0.581-0.697,1.8-2.302,2.724C4.734,4.64,3.164,4.918,2.829,4.338 C2.495,3.757,3.524,2.539,5.131,1.613C6.736,0.689,8.308,0.41,8.643,0.99z"/>
    <path fill="#FFFFFF" d="M4.969,8.234L4.617,7.066c0.855-0.324,1.735-0.743,2.28-1.188h1.024v7.403H6.517v-5.75L4.969,8.234z"/>
    <path fill="#FFFFFF" d="M8.994,12.847l0.422-1.08c0.766,0.355,1.318,0.465,1.959,0.465c0.939,0,1.383-0.563,1.383-1.299 c0-0.57-0.273-1.263-1.193-1.263c-0.428,0-0.84,0.171-1.166,0.517l-1.002-0.084l0.143-4.171h4.266v1.244h-3.047l-0.095,1.796 l0.021,0.011c0.346-0.294,0.86-0.51,1.383-0.51c1.295,0,2.17,0.821,2.17,2.378c0,1.674-1.045,2.539-2.774,2.539 C10.604,13.39,9.879,13.249,8.994,12.847z"/>
    <rect x="0.008" y="7.951" opacity="0.4" fill="#F2F2F2" enable-background="new    " width="4.319" height="3.972"/>
    <rect x="15.121" y="7.951" opacity="0.4" fill="#F2F2F2" enable-background="new    " width="4.046" height="3.972"/>
</svg>
