<svg data-linecolor="#85AD57" version="1.1" xmlns="http://www.w3.org/2000/svg" xmlns:xlink="http://www.w3.org/1999/xlink" x="0px" y="0px" width="19.168px" height="19.18px" viewBox="0 0 19.168 19.18" enable-background="new 0 0 19.168 19.18" xml:space="preserve">
    <path fill="#85AD57" d="M19.168,9.591c0,5.298-4.293,9.589-9.582,9.589C4.282,19.179,0,14.889,0,9.591C0,4.294,4.282,0,9.587,0 C14.875,0,19.168,4.294,19.168,9.591z"/>
    <rect x="0.008" y="7.95" opacity="0.4" fill="#F2F2F2" enable-background="new    " width="4.319" height="3.972"/>
    <rect x="15.122" y="7.95" opacity="0.4" fill="#F2F2F2" enable-background="new    " width="4.037" height="3.972"/>
    <path fill="#FFFFFF" d="M5.217,8.329L4.891,7.251c0.79-0.3,1.605-0.688,2.108-1.099h0.946v6.84H6.646V7.681L5.217,8.329z"/>
    <path fill="#FFFFFF" d="M13.208,6.204v4.142h0.867v1.08h-0.867v1.568h-1.3v-1.568H8.836v-1.08c1.097-1.199,2.057-2.545,2.768-4.142 H13.208z M11.908,10.346V7.89h-0.021c-0.544,0.999-1.037,1.649-1.724,2.457L11.908,10.346L11.908,10.346z"/>
    <path fill="#F2F2F2" d="M8.643,0.99c0.334,0.577-0.697,1.8-2.302,2.724C4.734,4.64,3.164,4.918,2.829,4.338 c-0.334-0.581,0.695-1.8,2.302-2.729C6.736,0.689,8.308,0.41,8.643,0.99z"/>
</svg>
