<svg data-linecolor="#7F5E39" version="1.1" xmlns="http://www.w3.org/2000/svg" xmlns:xlink="http://www.w3.org/1999/xlink" x="0px" y="0px" width="17px" height="17px" viewBox="0 0 17 17" enable-background="new 0 0 17 17" xml:space="preserve">
    <path fill="#7F5E39" d="M17,8.502C17,13.198,13.193,17,8.501,17C3.801,17.001,0,13.198,0,8.502C0,3.806,3.801,0,8.5,0 C13.192,0,17,3.806,17,8.502z"/>
    <path fill="#F2F2F2" d="M8.643,0.99c0.334,0.58-0.697,1.8-2.302,2.724C4.734,4.64,3.164,4.918,2.829,4.338 c-0.334-0.581,0.695-1.8,2.302-2.726C6.736,0.689,8.308,0.41,8.643,0.99z"/>
    <path fill="#F2F2F2" d="M3.295,6.837c0.298,0.519,0.13,1.174-0.376,1.466C2.414,8.594,1.762,8.409,1.464,7.891 C1.165,7.373,1.333,6.717,1.839,6.426C2.345,6.135,2.997,6.319,3.295,6.837z"/>
</svg>
